<?xml version="1.0" standalone="no"?>
<!DOCTYPE svg PUBLIC "-//W3C//DTD SVG 20010904//EN"
 "http://www.w3.org/TR/2001/REC-SVG-20010904/DTD/svg10.dtd">
<svg version="1.0" xmlns="http://www.w3.org/2000/svg"
 width="512.000000pt" height="512.000000pt" viewBox="0 0 512.000000 512.000000"
 preserveAspectRatio="xMidYMid meet">

<g transform="translate(0.000000,512.000000) scale(0.100000,-0.100000)"
fill="#000000" stroke="none">
<path d="M2505 4306 c-22 -7 -51 -18 -65 -25 -14 -7 -436 -423 -938 -925 -619
-618 -915 -921 -922 -942 -15 -44 -2 -70 73 -141 110 -106 0 -195 1019 824
l888 888 883 -883 c869 -868 883 -882 921 -882 35 0 47 7 108 68 61 61 68 73
68 108 0 38 -14 53 -912 952 -959 960 -946 948 -1048 965 -19 3 -53 0 -75 -7z"/>
<path d="M1822 3077 l-742 -742 0 -710 c0 -691 1 -711 20 -743 11 -18 34 -41
52 -52 32 -19 52 -20 536 -20 l502 0 0 500 0 500 390 0 390 0 0 -500 0 -500
491 0 c544 0 538 -1 579 65 20 32 20 48 20 746 l0 714 -743 743 c-408 408
-744 742 -747 742 -3 0 -339 -334 -748 -743z"/>
</g>
</svg>
