<?xml version="1.0" encoding="UTF-8" standalone="no"?>
<!-- Sourced from https://openclipart.org/detail/300899/bull-3 -->
<svg
   version="1.1"
   x="0"
   y="0"
   width="1016"
   height="520"
   viewBox="0, 0, 1016, 520"
   id="svg5"
   sodipodi:docname="bullrush.svg"
   inkscape:version="1.1.1 (3bf5ae0d25, 2021-09-20)"
   xmlns:inkscape="http://www.inkscape.org/namespaces/inkscape"
   xmlns:sodipodi="http://sodipodi.sourceforge.net/DTD/sodipodi-0.dtd"
   xmlns="http://www.w3.org/2000/svg"
   xmlns:svg="http://www.w3.org/2000/svg">
  <defs
     id="defs9" />
  <sodipodi:namedview
     id="namedview7"
     pagecolor="#ffffff"
     bordercolor="#666666"
     borderopacity="1.0"
     inkscape:pageshadow="2"
     inkscape:pageopacity="0.0"
     inkscape:pagecheckerboard="0"
     showgrid="false"
     inkscape:zoom="1.0413386"
     inkscape:cx="507.51985"
     inkscape:cy="259.76181"
     inkscape:window-width="1920"
     inkscape:window-height="1017"
     inkscape:window-x="-8"
     inkscape:window-y="-8"
     inkscape:window-maximized="1"
     inkscape:current-layer="svg5" />
  <g
     id="Layer_1"
     transform="matrix(-1,0,0,1,1015.4,0)">
    <path
       d="m 196.863,405.148 c -0.152,1.237 -0.487,2.505 -1.016,3.706 -0.903,2.054 -2.369,3.919 -4.484,5.133 -1.628,0.977 -3.512,1.514 -5.455,1.646 -1.904,0.149 -4.067,-0.173 -5.967,-1.189 -1.188,-0.65 -2.223,-1.454 -3.145,-2.359 -1.811,-1.769 -3.146,-3.944 -4.108,-6.254 -0.067,-0.162 -0.138,-0.321 -0.203,-0.481 -0.025,-0.066 -0.055,-0.131 -0.081,-0.199 -0.611,-1.698 -1.04,-3.536 -1.183,-5.453 -0.176,-2.342 0.073,-4.803 1.014,-7.303 l 7.906,3.827 c -1.245,1.657 -1.802,4.471 -1.429,7.247 0.1,0.77 0.279,1.542 0.507,2.301 0.169,0.565 0.364,1.119 0.604,1.651 0.573,1.281 1.351,2.434 2.335,3.324 0.036,0.03 0.06,0.075 0.097,0.107 0.336,0.302 0.737,0.553 1.162,0.778 1.277,0.673 2.895,0.989 4.528,0.901 0.117,-0.007 0.232,-0.007 0.352,-0.02 0.733,-0.064 1.467,-0.21 2.163,-0.446 1.563,-0.492 2.942,-1.494 4.063,-2.798 1.013,-1.168 1.815,-2.581 2.34,-4.119 m -28.503,-112.663 -3.882,13.446 -3.661,-39.245 c 16.56,-1.921 23.642,24.427 7.543,25.799 m 56.255,-128.422 c 3.478,-6.119 7.954,-11.6 12.7,-16.782 4.829,-5.113 10.056,-9.848 15.629,-14.175 l 4.267,-3.14 c 1.481,-0.977 2.925,-1.998 4.438,-2.945 1.527,-0.936 3.03,-1.89 4.668,-2.738 0.779,-0.448 1.623,-0.873 2.545,-1.268 0.485,-0.201 0.802,-0.403 1.433,-0.604 0.647,-0.2 1.311,-0.373 1.973,-0.524 l 2.319,-0.516 1.184,2.536 c 1.303,2.788 2.465,5.652 3.36,8.616 0.855,2.967 1.522,5.99 1.932,9.053 0.815,6.123 0.75,12.345 -0.144,18.435 -0.852,6.107 -2.592,12.066 -5.156,17.741 -1.291,2.841 -2.788,5.611 -4.699,8.279 -0.83,1.171 -1.777,2.311 -2.879,3.434 0.332,0.346 0.665,0.693 0.986,1.04 1.608,1.756 3.027,3.571 4.404,5.398 2.71,3.664 5.163,7.405 7.532,11.182 4.701,7.568 9.111,15.225 13.179,23.053 4.102,7.808 8.034,15.681 11.86,23.602 3.748,7.963 7.392,15.941 10.928,24.025 l 1.091,2.495 -2.186,1.313 c -9.272,5.56 -18.49,11.208 -27.84,16.649 -9.306,5.507 -18.685,10.905 -28.152,16.17 8.648,-6.522 17.383,-12.908 26.19,-19.188 8.027,-5.805 16.165,-11.449 24.265,-17.135 -3.538,-7.037 -7.183,-14.057 -10.901,-21.01 -4.048,-7.732 -8.176,-15.417 -12.464,-22.992 -4.318,-7.555 -8.574,-15.139 -13.24,-22.377 -2.324,-3.619 -4.718,-7.186 -7.256,-10.536 -2.509,-3.278 -5.297,-6.641 -7.891,-8.515 l 1.78,-7.925 c -0.401,0.124 0.624,-0.298 1.321,-1.042 0.772,-0.722 1.573,-1.66 2.307,-2.682 1.49,-2.035 2.804,-4.368 3.93,-6.795 2.254,-4.87 3.847,-10.129 4.801,-15.477 0.958,-5.354 1.177,-10.833 0.628,-16.225 -0.47,-4.357 -1.462,-8.641 -2.914,-12.782 -0.403,0.172 -0.798,0.316 -1.218,0.535 -1.467,0.664 -2.922,1.488 -4.385,2.283 -1.456,0.812 -2.883,1.714 -4.327,2.566 l -4.247,2.753 c -5.622,3.762 -10.974,7.964 -15.964,12.555 -5.019,4.552 -9.754,9.486 -13.712,15.017 -3.97,5.507 -7.358,11.51 -9.517,18.106 1.232,-6.824 3.926,-13.393 7.442,-19.463 m -55.05,238.911 c -5.455,-4.876 -9.745,-11.186 -11.827,-18.468 -0.48,-1.837 -0.806,-3.739 -0.832,-5.754 0.026,-1.021 0.062,-2.048 0.361,-3.157 0.287,-1.072 0.775,-2.339 1.903,-3.317 1.094,-0.973 2.573,-1.359 3.772,-1.336 1.224,0.011 2.287,0.303 3.263,0.658 1.933,0.744 3.536,1.84 4.975,3.067 2.899,2.427 5.152,5.444 6.773,8.751 1.566,3.297 2.419,7.112 1.619,10.615 -0.195,-3.555 -1.563,-6.778 -3.491,-9.548 -1.901,-2.785 -4.315,-5.226 -6.992,-7.104 -1.342,-0.923 -2.775,-1.694 -4.161,-2.15 -1.409,-0.461 -2.659,-0.333 -2.975,0.137 -0.432,0.367 -0.823,1.861 -0.757,3.334 0.045,1.509 0.346,3.098 0.779,4.66 0.806,3.156 2.239,6.209 3.932,9.091 1.494,2.586 3.322,4.978 5.314,7.245 -0.176,-2.342 0.073,-4.803 1.014,-7.303 l 7.906,3.827 c -1.245,1.657 -1.802,4.471 -1.429,7.247 0.1,0.77 0.279,1.542 0.507,2.301 8.962,-0.555 18.12,-3.178 29.171,-9.085 31.837,-17.016 -14.821,-55.073 4.94,-57.817 19.761,-2.745 10.979,43.361 10.979,43.361 0,0 18.663,-4.939 20.309,-15.367 1.647,-10.43 -5.489,-41.994 25.25,-38.7 11.838,1.271 31.653,1.038 53.797,4.841 -23.656,33.38 -73.801,103.883 -105.12,146.111 -19.441,17.529 -26.817,32.673 -28.451,34.306 39.885,12.441 68.849,-8.04 68.849,-8.04 0,0 -13.776,-28.736 9.278,-33.678 8.131,-15.199 -4.94,-28.543 33.85,-44.645 21.969,-29.122 57.898,-47.692 96.444,-58.683 9.852,9.52 18.78,21.43 26.145,36.363 16.504,-21.71 33.679,-41.121 40.142,-48.287 0.441,-0.039 0.883,-0.075 1.325,-0.114 -11.605,23.052 -52.442,74.019 -45.127,84.994 10.247,15.369 57.087,36.594 91.853,47.206 38.998,-7.923 52.399,-14.094 60.695,-22.44 2.378,-5.124 -27.578,-21.84 -47.339,-20.742 l -7.136,15.644 c -22.506,-0.049 -47.207,-29.365 -42.266,-30.462 4.94,-1.098 91.119,-41.168 91.119,-41.168 0,0 -52.696,-71.05 -51.049,-69.283 1.647,1.764 62.027,62.693 62.027,62.693 0,0 38.162,-11.98 81.875,-22.239 l -6.616,20.431 c 45.361,14.617 33.243,48.65 8.943,80.774 -17.418,17.278 -24.738,26.792 -29.86,35.21 32.386,9.331 60.38,0 60.38,0 l -9.166,-32.21 c 9.331,-3.019 15.064,-14.266 15.064,-14.266 0,0 -9.558,-38.79 58.507,-49.035 4.389,-11.883 6.387,-35.28 7.226,-54.831 5.568,0.552 10.313,1.596 13.999,3.234 13.174,-46.111 30.739,-70.261 30.739,-70.261 -18.663,41.715 -37.326,103.193 14.272,154.792 20.942,-16.578 99.097,2.563 123.948,43.365 3.111,17.432 6.692,35.678 6.692,35.678 4.747,2.878 31.644,6.381 54.893,0 -17.647,-28.56 -42.68,-53.366 -67.479,-73.416 -10.022,-29.437 -21.446,-56.128 -21.446,-56.128 0,0 -89.655,-23.418 -8.782,-119.661 L 873.375,151.153 c -0.656,-16.829 22.32,-21.585 30.666,-11.861 57.798,-19.386 109.359,5.191 109.359,5.191 0,0 -75.162,-50.692 -157.252,-21.095 C 819.313,134.397 643.156,175.219 500.41,1.839 281.944,35.872 217.173,143.458 154.597,181.879 l -0.076,0.457 c -26.887,1.672 -63.598,4.091 -63.598,4.091 0,0 16.305,62.67 -88.923,68.457 84.459,25.254 114.271,-13.5 146.198,-33.549 l -10.068,62.092 c 27.445,12.625 7.776,117.872 17.652,120.004 5.966,1.286 11.476,2.165 16.906,2.4 -0.067,-0.162 -0.138,-0.321 -0.203,-0.481 -1.003,-0.753 -1.985,-1.533 -2.92,-2.376"
       fill="#0a0b09"
       id="path2" />
  </g>
</svg>
