<?xml version="1.0" encoding="UTF-8" standalone="no"?>
<!-- Created with Inkscape (http://www.inkscape.org/) -->

<!--
  Adapted from:
    https://openclipart.org/detail/19535/home
  -->
  
<svg
   id="svg2"
   sodipodi:docname="home-openclipart.svg"
   viewBox="0 0 512.0000 512.0000"
   sodipodi:version="0.32"
   version="1.0"
   inkscape:output_extension="org.inkscape.output.svg.inkscape"
   inkscape:version="1.1.1 (3bf5ae0d25, 2021-09-20)"
   width="512pt"
   height="512pt"
   xmlns:inkscape="http://www.inkscape.org/namespaces/inkscape"
   xmlns:sodipodi="http://sodipodi.sourceforge.net/DTD/sodipodi-0.dtd"
   xmlns="http://www.w3.org/2000/svg"
   xmlns:svg="http://www.w3.org/2000/svg"
   xmlns:rdf="http://www.w3.org/1999/02/22-rdf-syntax-ns#">
  <defs
     id="defs10" />
  <sodipodi:namedview
     id="base"
     bordercolor="#666666"
     inkscape:pageshadow="2"
     guidetolerance="10"
     pagecolor="#ffffff"
     gridtolerance="10000"
     inkscape:window-height="1017"
     inkscape:zoom="1.4098083"
     objecttolerance="10"
     showgrid="false"
     borderopacity="1.0"
     inkscape:current-layer="layer1"
     inkscape:cx="168.46262"
     inkscape:cy="219.53339"
     inkscape:window-y="-8"
     inkscape:window-x="-8"
     inkscape:window-width="1920"
     inkscape:pageopacity="0.0"
     inkscape:document-units="px"
     inkscape:pagecheckerboard="0"
     inkscape:window-maximized="1"
     width="512px" />
  <g
     id="layer1"
     inkscape:label="Layer 1"
     inkscape:groupmode="layer"
     transform="translate(-42.339,-276.34)">
    <path
       id="rect2391"
       sodipodi:nodetypes="cccccccccccccccccc"
       style="fill:#000000"
       d="m 135.418,535.44 z m 0,0 162.82,-144.19 162.9,144.25 v 206.12 c 0,5.33 -4.3,9.6 -9.62,9.6 h -101.81 v -90.38 c 0,-5.32 -4.27,-9.62 -9.6,-9.62 h -83.65 c -5.33,0 -9.6,4.3 -9.6,9.62 v 90.38 h -101.84 c -5.32,0 -9.6,-4.27 -9.6,-9.6 z m 325.72,0.06 z" />
    <path
       id="path2399"
       style="fill:#000000"
       d="M 299.178,312.34 530.228,516.93 505.89,544.38 298.24,360.5 90.63,544.38 66.34,516.93 l 231,-204.59 0.9,1.04 0.94,-1.04 z" />
    <path
       id="rect2404"
       sodipodi:nodetypes="ccccc"
       style="fill:#000000"
       d="m 461.138,341.79 h -58.57 l 0.51,34.69 58.06,52.45 z" />
  </g>
  <metadata
     id="metadata7">
    <rdf:RDF />
  </metadata>
</svg>
