<?xml version="1.0" encoding="UTF-8" standalone="no"?>
<svg
   id="Layer_1"
   data-name="Layer 1"
   viewBox="0 0 427.75 128.6"
   version="1.1"
   sodipodi:docname="uni_logo_white--horizontal-v05.svg"
   inkscape:version="1.1.1 (3bf5ae0d25, 2021-09-20)"
   xmlns:inkscape="http://www.inkscape.org/namespaces/inkscape"
   xmlns:sodipodi="http://sodipodi.sourceforge.net/DTD/sodipodi-0.dtd"
   xmlns="http://www.w3.org/2000/svg"
   xmlns:svg="http://www.w3.org/2000/svg"
   xmlns:rdf="http://www.w3.org/1999/02/22-rdf-syntax-ns#"
   xmlns:cc="http://creativecommons.org/ns#"
   xmlns:dc="http://purl.org/dc/elements/1.1/">
  <sodipodi:namedview
     id="namedview153"
     pagecolor="#ffffff"
     bordercolor="#666666"
     borderopacity="1.0"
     inkscape:pageshadow="2"
     inkscape:pageopacity="0.0"
     inkscape:pagecheckerboard="true"
     showgrid="false"
     inkscape:zoom="6.9958525"
     inkscape:cx="60.392926"
     inkscape:cy="94.841908"
     inkscape:window-width="1920"
     inkscape:window-height="1017"
     inkscape:window-x="-8"
     inkscape:window-y="-8"
     inkscape:window-maximized="1"
     inkscape:current-layer="Layer_1" />
  <defs
     id="defs4">
    <style
       id="style2">.cls-1,.cls-4{fill:#faa61a;}.cls-1,.cls-3,.cls-5,.cls-7{fill-rule:evenodd;}.cls-2,.cls-3{fill:#231f20;}.cls-5,.cls-6{fill:#e41815;}.cls-7,.cls-8{fill:#fff;}.cls-9{fill:none;}</style>
  </defs>
  <title
     id="title6">SVG Full Colour Horizontal RGB for red background</title>
  <path
     id="path8"
     style="fill:#ffffff;fill-opacity:1"
     class="cls-1"
     d="M 13.400391 85 C 10.780391 86.7 7.2208594 89.06 6.1308594 90 C 0.43085908 94.94 10.449609 109.79 24.849609 119 A 54.73 54.73 0 0 0 56.009766 127.75977 A 54.72 54.72 0 0 0 87.169922 119 C 101.56992 109.83 111.60067 95 105.89062 90 C 104.79063 89 101.21914 86.68 98.619141 85 C 102.52914 94.23 82.099766 117.32914 56.009766 117.36914 C 30.099766 117.36914 9.5803866 94.14 13.400391 85 z M 87.150391 88.320312 C 85.390391 90.540312 83.439453 92.599609 83.439453 92.599609 C 83.439453 92.599609 81.129375 94.999609 79.359375 96.599609 A 19.81 19.81 0 0 0 81.310547 102.53906 A 25 25 0 0 0 83.410156 105.90039 C 83.740156 106.35039 84.099063 106.81078 84.289062 107.05078 A 46 46 0 0 0 91.609375 100.34961 A 23 23 0 0 1 87.779297 94.349609 L 87.779297 94.320312 A 11 11 0 0 1 87.150391 88.320312 z M 24.800781 88.380859 A 11 11 0 0 1 24.169922 94.380859 A 16.32 16.32 0 0 1 20.3125 100.04688 A 45.74 45.74 0 0 0 26.269531 105.7793 C 26.729531 106.1393 27.200234 106.51016 27.740234 106.91016 C 27.930234 106.68016 28.220781 106.32016 28.550781 105.91016 A 25.09 25.09 0 0 0 30.650391 102.55078 A 19 19 0 0 0 32.599609 96.75 C 30.809609 95.12 28.369141 92.599609 28.369141 92.599609 C 28.369141 92.599609 26.560781 90.600859 24.800781 88.380859 z M 20.3125 100.04688 A 45.74 45.74 0 0 1 20.269531 100 L 20.269531 100.08984 A 16.32 16.32 0 0 0 20.3125 100.04688 z M 8.9804688 105.78906 C 8.1104686 105.92906 6.9803125 105.98969 5.8203125 106.17969 A 7.15 7.15 0 0 0 2.3808594 107.59961 C 0.82085917 108.88961 0.54984325 110.22016 1.0898438 111.41016 C 1.6298438 112.60016 3.2103906 112.78977 4.6503906 112.50977 A 3.57 3.57 0 0 0 7.4492188 110.35938 L 8.0195312 109.16992 L 9.359375 115.96094 A 19.43 19.43 0 0 0 13.359375 115.26953 A 27.33 27.33 0 0 0 16.859375 114.13086 L 15.859375 113.25 L 15.890625 113.21094 C 14.730625 112.21094 13.620078 111.09 12.580078 110 A 52 52 0 0 1 8.9804688 105.78906 z M 103.10938 105.78906 L 103.08984 105.80078 A 58.35 58.35 0 0 1 95.160156 114.09961 A 27.54 27.54 0 0 0 98.619141 115.2207 A 19.46 19.46 0 0 0 102.61914 115.91016 L 103.96094 109.11914 L 104.5293 110.31055 A 3.57 3.57 0 0 0 107.33008 112.46094 C 108.77008 112.74094 110.33062 112.53938 110.89062 111.35938 C 111.45065 110.17937 111.15961 108.85078 109.59961 107.55078 A 7.15 7.15 0 0 0 106.16992 106.16992 C 105.05992 105.97992 103.96938 105.91906 103.10938 105.78906 z M 22.869141 108.06055 L 23.830078 108.7793 L 22.380859 110.71094 L 22.390625 110.7207 L 25.369141 109.96094 L 26.490234 110.80078 L 22.970703 111.64062 L 23.099609 115.5293 L 21.929688 114.65039 L 21.859375 111.44922 L 21.839844 111.42969 L 20.320312 113.43945 L 19.359375 112.7207 L 22.869141 108.06055 z M 87.410156 109.36914 L 92.890625 112.51953 L 92.880859 112.57031 L 91.880859 113.36914 L 90.560547 112.59961 L 88.990234 113.75 L 89.439453 115.19922 L 88.5 115.93945 L 86.689453 109.93945 L 87.410156 109.36914 z M 88.050781 110.91992 A 4.66 4.66 0 0 1 88.310547 111.59961 L 88.650391 112.78906 L 89.650391 112.00977 L 89.660156 112 L 88.660156 111.34961 A 6.3 6.3 0 0 1 88.050781 110.91992 z M 84.679688 111.56055 L 84.970703 112.55078 L 83.640625 113.38086 L 86.199219 117.48047 L 85.169922 118.13086 L 82.609375 114.0293 L 81.160156 114.92969 L 80.630859 114.08984 L 84.679688 111.56055 z M 104.32031 111.69922 L 102.15039 122.69922 L 102.15039 122.73047 A 1.26 1.26 0 0 0 103.40039 124 C 104.27039 123.91 104.86953 123.26 105.51953 122 C 106.16953 120.74 106.7907 119.00047 107.7207 117.23047 C 108.6507 115.46047 109.15086 114.60047 109.88086 113.23047 A 4.9 4.9 0 0 1 107.13086 113.33008 A 4.75 4.75 0 0 1 104.32031 111.69922 z M 7.6308594 111.73047 A 4.75 4.75 0 0 1 4.8203125 113.35938 A 4.9 4.9 0 0 1 2.0703125 113.25977 C 2.8003125 114.63977 3.3604687 115.54977 4.2304688 117.25977 C 5.1004688 118.96977 5.7696875 120.7693 6.4296875 122.0293 C 7.0896875 123.2893 7.6907822 123.9193 8.5507812 124.0293 A 1.26 1.26 0 0 0 9.8007812 122.75977 L 9.8007812 122.73047 L 7.6308594 111.73047 z M 27.994141 112.18359 A 3 3 0 0 1 28.392578 112.2207 A 3 3 0 0 1 29.509766 112.64062 A 2.81 2.81 0 0 1 30.509766 116.74023 L 30.560547 116.74023 A 3 3 0 0 1 25.009766 116.08984 A 2.93 2.93 0 0 1 25.359375 113.69922 A 3.06 3.06 0 0 1 27.199219 112.26953 A 3 3 0 0 1 27.994141 112.18359 z M 28.150391 113.23828 A 1.75 1.75 0 0 0 27.865234 113.24609 A 1.75 1.75 0 1 0 29.400391 116.09961 A 1.76 1.76 0 0 0 28.960938 113.49023 A 1.75 1.75 0 0 0 28.150391 113.23828 z M 78.099609 115.2207 L 82.726562 119.52539 L 82.740234 119.51953 L 82.730469 119.5293 L 82.726562 119.52539 L 81.560547 120.07031 L 80.449219 119.01953 L 78.650391 119.85938 L 78.759766 121.38086 L 77.679688 121.88086 L 77.269531 115.60938 L 78.099609 115.2207 z M 35.759766 115.9707 L 40.240234 117.58984 L 39.650391 118.42969 L 38.169922 117.90039 L 36.519531 122.43945 L 35.369141 122.0293 L 37.029297 117.48047 L 35.419922 116.89062 L 35.759766 115.9707 z M 78.349609 116.88086 A 4.44 4.44 0 0 1 78.449219 117.59961 L 78.580078 118.83984 L 79.730469 118.30078 L 79.679688 118.30078 L 78.839844 117.43945 A 6.67 6.67 0 0 1 78.349609 116.88086 z M 73.324219 117.37891 A 5.08 5.08 0 0 1 73.769531 117.38086 L 74.070312 118.42969 A 3.43 3.43 0 0 0 72.439453 118.5 A 1.89 1.89 0 0 0 70.970703 121.00977 A 1.93 1.93 0 0 0 73.429688 122.41016 A 2.32 2.32 0 0 0 74.210938 122.01953 L 73.640625 120.15039 L 74.800781 119.80078 L 75.529297 122.17969 L 75.529297 122.23047 A 5 5 0 0 1 73.419922 123.48047 A 2.81 2.81 0 0 1 69.730469 121.48047 A 3.07 3.07 0 0 1 72.009766 117.60938 A 5.08 5.08 0 0 1 73.324219 117.37891 z M 41.890625 118.0293 L 45.160156 118.91016 L 44.589844 119.7793 L 42.800781 119.30078 L 42.449219 120.61914 L 44.25 121.09961 L 43.990234 122.07031 L 42.189453 121.58984 L 41.810547 123.01953 L 43.890625 123.58008 L 43.640625 124.53906 L 40.380859 123.66992 L 41.890625 118.0293 z M 67.119141 119.05078 L 68.025391 124.78906 L 68.029297 124.78906 L 68.029297 124.81055 L 68.025391 124.78906 L 66.919922 124.9707 L 63.919922 122.16992 C 63.659922 121.92992 63.47 121.73 63.25 121.5 C 63.29 121.69 63.390625 122.04078 63.390625 122.30078 L 63.890625 125.46094 L 62.699219 125.65039 L 61.789062 119.89062 L 63 119.69922 L 65.900391 122.40039 C 66.170391 122.66039 66.370547 122.86031 66.560547 123.07031 C 66.500547 122.80031 66.400391 122.41969 66.400391 122.17969 L 65.929688 119.24023 L 67.119141 119.05078 z M 49.25 119.64062 L 53.990234 120.14062 L 53.609375 121.08984 L 52.060547 120.92969 L 51.550781 125.74023 L 50.339844 125.60938 L 50.839844 120.80078 L 49.140625 120.61914 L 49.25 119.64062 z M 57.109375 120.0293 L 58.029297 120.0293 L 60.509766 125.84961 L 60.490234 125.91992 L 59.189453 125.91992 L 58.599609 124.50977 L 56.599609 124.50977 L 56.080078 125.93945 L 54.890625 125.93945 L 57.109375 120.0293 z M 57.570312 121.63086 A 4.73 4.73 0 0 1 57.369141 122.33008 L 56.960938 123.49023 L 58.230469 123.49023 L 58.220703 123.4707 L 57.800781 122.34961 A 6.6 6.6 0 0 1 57.570312 121.63086 z " />
  <g
     id="g4873" />
  <path
     class="cls-2"
     d="M105.26,125.13a1.26,1.26,0,0,0,1.25,1.27c.87-.09,1.47-.74,2.12-2s1.27-3,2.2-4.77,1.43-2.63,2.16-4a4.9,4.9,0,0,1-2.75.1,4.75,4.75,0,0,1-2.81-1.63l-2.17,11Zm-92.35,0-2.17-11a4.75,4.75,0,0,1-2.81,1.63,4.9,4.9,0,0,1-2.75-.1c.73,1.38,1.29,2.29,2.16,4s1.54,3.51,2.2,4.77,1.26,1.89,2.12,2a1.26,1.26,0,0,0,1.25-1.27Zm10.47-22.69a45.74,45.74,0,0,0,6,5.78c.46.36.93.73,1.47,1.13.19-.23.48-.59.81-1a25.09,25.09,0,0,0,2.1-3.36,19,19,0,0,0,1.95-5.8C33.92,97.52,31.48,95,31.48,95s-1.81-2-3.57-4.22a11,11,0,0,1-.63,6,16.32,16.32,0,0,1-3.9,5.71ZM19,115.61c-1.16-1-2.27-2.12-3.31-3.21a52,52,0,0,1-3.6-4.21c-.87.14-2,.2-3.16.39A7.15,7.15,0,0,0,5.49,110c-1.56,1.29-1.83,2.62-1.29,3.81s2.12,1.38,3.56,1.1a3.57,3.57,0,0,0,2.8-2.15l.57-1.19,1.34,6.79a19.43,19.43,0,0,0,4-.69,27.33,27.33,0,0,0,3.5-1.14l-1-.88Zm87.2-7.41a58.35,58.35,0,0,1-7.93,8.3,27.54,27.54,0,0,0,3.46,1.12,19.46,19.46,0,0,0,4,.69l1.34-6.79.57,1.19a3.57,3.57,0,0,0,2.8,2.15c1.44.28,3,.08,3.56-1.1s.27-2.51-1.29-3.81a7.15,7.15,0,0,0-3.43-1.38c-1.11-.19-2.2-.25-3.06-.38ZM90.89,96.72a11,11,0,0,1-.63-6C88.5,92.94,86.55,95,86.55,95s-2.31,2.4-4.08,4a19.81,19.81,0,0,0,1.95,5.94,25,25,0,0,0,2.1,3.36c.33.45.69.91.88,1.15a46,46,0,0,0,7.32-6.7,23,23,0,0,1-3.83-6Zm-64.75.48a4,4,0,0,0-3.49-1.35,3.94,3.94,0,0,0-3,1.32,34.5,34.5,0,0,0,3.19,4.59,16.77,16.77,0,0,0,3.33-4.56Zm72.59,0a3.94,3.94,0,0,0-3-1.36,4,4,0,0,0-3.46,1.31,13.21,13.21,0,0,0,3.26,4.71,34.11,34.11,0,0,0,3.26-4.66Zm3.08-9.76a5.16,5.16,0,0,1,.24.95c2.19,9.79-17.73,31.34-42.92,31.38-25.91,0-46.43-23.23-42.61-32.37-2.62,1.7-6.18,4.06-7.27,5-5.7,4.94,4.32,19.79,18.72,29a54.73,54.73,0,0,0,31.16,8.76,54.72,54.72,0,0,0,31.16-8.76c14.4-9.17,24.43-24,18.72-29-1.09-.94-4.6-3.27-7.2-5Zm-10.16.28c1.12-1.89,2.56-3.36,5-3.44a5,5,0,0,1,3.53,1c.19.14,8.12,5.31,9.41,6.42,3.68,3.19,1.88,9.31-2.79,15.65.77.09,1.67.16,2.6.32a8,8,0,0,1,3.85,1.57c1.82,1.5,2.23,3,1.42,5.08-1.08,2.22-1.87,3.39-3,5.68-.93,1.83-1.54,3.51-2.2,4.78s-1.46,2.31-2.81,2.45a2.12,2.12,0,0,1-2.21-2.32l1.14-5.77a20.28,20.28,0,0,1-4-.71,26.59,26.59,0,0,1-4-1.33,64.18,64.18,0,0,1-6.75,5A55.59,55.59,0,0,1,59.12,131a55.59,55.59,0,0,1-31.63-8.89,63.7,63.7,0,0,1-6.78-5,25.88,25.88,0,0,1-4,1.36,20.27,20.27,0,0,1-4,.71L13.77,125a2.13,2.13,0,0,1-2.21,2.32c-1.35-.15-2.14-1.18-2.81-2.45s-1.27-3-2.2-4.78c-1.16-2.29-2-3.46-3-5.68-.81-2-.4-3.58,1.42-5.08a8,8,0,0,1,3.85-1.57c1-.16,1.89-.23,2.67-.32C6.79,101,5,94.92,8.67,91.74c1.51-1.31,7.62-5.25,9.71-6.59a5,5,0,0,1,3.3-.85c2.4.09,3.84,1.52,5,3.37,2,2.75,5.5,6.71,5.5,6.71s2.57,2.68,4.33,4.28l.14.4a20,20,0,0,1-2.07,6.28,26,26,0,0,1-2.17,3.48c-.31.43-.57.81-.75,1.09a46.85,46.85,0,0,0,55.09,0c-.24-.29-.56-.69-.89-1.13a25.88,25.88,0,0,1-2.17-3.48,20,20,0,0,1-2.07-6.28l.14-.4C83.47,97.07,86,94.38,86,94.38s3.52-4,5.5-6.71l.11.07Z"
     transform="translate(-3.11 -2.4)"
     id="path32"
     style="fill:#231f20;fill-opacity:0" />
  <path
     id="path36"
     style="fill:#ffffff;fill-opacity:1"
     class="cls-2"
     d="M 20.890625 11.699219 L 20.890625 46.890625 C 20.890625 46.890625 20.449844 60.339609 30.089844 75.599609 C 38.679844 89.149609 56.019531 99.519531 56.019531 99.519531 C 56.019531 99.519531 71.680234 91.120547 80.740234 77.810547 C 91.270234 62.350547 91.269531 49.130859 91.269531 49.130859 L 91.269531 11.699219 L 20.890625 11.699219 z M 56.130859 13.730469 L 57.75 18.730469 L 62.890625 18.730469 L 58.660156 21.800781 L 60.267578 26.761719 L 60.320312 26.800781 L 60.279297 26.800781 L 60.267578 26.761719 L 56.089844 23.730469 L 51.890625 26.800781 L 53.509766 21.800781 L 49.279297 18.730469 L 54.509766 18.730469 L 56.130859 13.730469 z M 52.410156 30.208984 C 52.675625 30.195137 52.963047 30.198203 53.279297 30.220703 A 2.84 2.84 0 0 1 55.630859 31.519531 L 55.630859 60.410156 L 55.619141 60.400391 A 3.72 3.72 0 0 0 53.199219 59.529297 C 50.809219 59.359297 49.950547 60.309141 48.810547 60.869141 A 13.24 13.24 0 0 1 42.720703 61.869141 L 42.720703 32.539062 A 14.3 14.3 0 0 0 48.810547 31.650391 C 49.834297 31.204141 50.551875 30.305918 52.410156 30.208984 z M 59.759766 30.208984 C 61.618047 30.305918 62.335625 31.204141 63.359375 31.650391 A 14.3 14.3 0 0 0 69.449219 32.539062 L 69.449219 61.869141 A 13.24 13.24 0 0 1 63.359375 60.869141 C 62.219375 60.309141 61.360703 59.359297 58.970703 59.529297 A 3.72 3.72 0 0 0 56.550781 60.400391 L 56.529297 60.410156 L 56.529297 31.519531 A 2.84 2.84 0 0 1 58.890625 30.220703 C 59.206875 30.198203 59.494297 30.195137 59.759766 30.208984 z M 41.869141 33.410156 L 41.869141 62.130859 L 39.869141 65.009766 L 39.869141 34.720703 C 40.119141 34.560703 40.569219 34.279688 41.199219 33.929688 L 41.220703 33.929688 A 2.91 2.91 0 0 0 41.869141 33.410156 z M 70.300781 33.410156 A 3 3 0 0 0 70.949219 33.929688 L 70.970703 33.929688 C 71.600703 34.279688 72.050781 34.560703 72.300781 34.720703 L 72.300781 65.009766 L 70.300781 62.130859 L 70.300781 33.410156 z M 37.660156 36.800781 L 38.990234 36.800781 L 38.990234 67 L 53.890625 67 A 1.74 1.74 0 0 0 54.470703 66.890625 A 3.3 3.3 0 0 0 55.619141 66.060547 A 4.09 4.09 0 0 0 56.050781 65.509766 A 4.1 4.1 0 0 0 56.480469 66.060547 A 3.31 3.31 0 0 0 57.630859 66.890625 A 1.75 1.75 0 0 0 58.210938 67 L 73.179688 67 L 73.179688 36.800781 L 74.509766 36.800781 L 74.509766 67.939453 L 59.119141 67.939453 C 59.219141 69.129453 57.979141 69.050781 56.119141 69.050781 C 54.259141 69.050781 52.960547 69.139453 53.060547 67.939453 L 37.660156 67.939453 L 37.660156 36.800781 z M 28.890625 41.029297 L 30.509766 46.029297 L 35.740234 46.029297 L 31.509766 49.099609 L 33.130859 54.099609 L 33.089844 54.109375 L 28.890625 51.029297 L 24.650391 54.099609 L 26.269531 49.099609 L 22.039062 46.029297 L 27.269531 46.029297 L 28.890625 41.029297 z M 83.130859 41.029297 L 84.75 46.029297 L 89.980469 46.029297 L 85.75 49.099609 L 87.369141 54.099609 L 87.320312 54.109375 L 83.089844 51.039062 L 78.890625 54.099609 L 80.509766 49.099609 L 76.279297 46.029297 L 81.509766 46.029297 L 83.130859 41.029297 z M 52.425781 60.390625 A 4.89 4.89 0 0 1 53.310547 60.419922 A 3 3 0 0 1 55.140625 61.169922 A 2.64 2.64 0 0 1 55.599609 61.730469 L 55.599609 64.550781 A 2.41 2.41 0 0 1 55 65.449219 A 2.29 2.29 0 0 1 54 66.119141 L 40.189453 66.119141 L 42.5 62.759766 A 15.8 15.8 0 0 0 44.380859 62.810547 A 12.86 12.86 0 0 0 48.949219 61.810547 C 49.549219 61.530547 50.040937 61.120547 50.710938 60.810547 A 4.89 4.89 0 0 1 52.425781 60.390625 z M 59.746094 60.390625 A 4.88 4.88 0 0 1 61.460938 60.810547 C 62.130938 61.120547 62.620703 61.530547 63.220703 61.810547 A 12.85 12.85 0 0 0 67.789062 62.810547 A 15.81 15.81 0 0 0 69.669922 62.759766 L 72.009766 66.160156 L 71.970703 66.119141 L 58.169922 66.119141 A 2.3 2.3 0 0 1 57.169922 65.449219 A 2.4 2.4 0 0 1 56.570312 64.550781 L 56.570312 61.730469 A 2.67 2.67 0 0 1 57.029297 61.169922 A 3 3 0 0 1 58.859375 60.419922 A 4.88 4.88 0 0 1 59.746094 60.390625 z M 56.060547 74.240234 L 58.060547 80.490234 L 64.630859 80.490234 L 59.320312 84.349609 L 61.296875 90.523438 L 61.400391 90.599609 L 61.320312 90.599609 L 61.296875 90.523438 L 56.089844 86.740234 L 50.769531 90.599609 L 52.769531 84.349609 L 47.490234 80.490234 L 54.060547 80.490234 L 56.060547 74.240234 z " />
  <path
     class="cls-3"
     d="M105.07,3.28H13.32V50.49A63.71,63.71,0,0,0,15.2,62.38a73.85,73.85,0,0,0,11.37,25.2c6.17,8.63,14.35,15.33,21,19.88a95.16,95.16,0,0,0,11.55,6.83,106.89,106.89,0,0,0,10.95-6.61c6.33-4.33,14.16-10.58,20.18-18.29a71.45,71.45,0,0,0,13.28-26.24A42.26,42.26,0,0,0,105.07,52V3.28Zm.88-.88V51.94c0,.07.81,17.74-15,38-12.19,15.61-31.82,25.34-31.82,25.34a93.64,93.64,0,0,1-12-7.08c-6.7-4.58-15-11.35-21.22-20.09A75.54,75.54,0,0,1,12.43,50.5V2.4Z"
     transform="translate(-3.11 -2.4)"
     id="path38"
     style="fill:#ffffff;fill-opacity:1" />
  <path
     class="cls-5"
     d="M34.84,84.5l1.33,2.29a42.72,42.72,0,0,1-6.64-2.3Zm48.82,0-1.34,2.29A42.75,42.75,0,0,0,89,84.49ZM59.15,111.64a31.1,31.1,0,0,0,6.65-3.85c7.25-5.52-.7-7.58-3.48-4.72-2.4,2.47.23,3.54,2.3,2.81,0,0-1.46,1-2.87,1.82-.89.51-1.86,1-2.63,1.38-.77-.34-1.74-.87-2.63-1.38-1.41-.81-2.87-1.82-2.87-1.82,2.07.73,4.71-.34,2.3-2.81-2.78-2.86-10.73-.8-3.48,4.72a31.64,31.64,0,0,0,6.71,3.85Zm30.76-26c-5.61,3-9.42,2.73-13.27,5.81-6,4.79,0,6.08,2.64,3.37,1.82-1.9-.15-2.71-1.55-2C80.42,91,82.16,90.64,85,89.63c0,0-4.44,6.69-10.81,10.22,1.22-1.3,1-3.69-1.66-2.34-3.79,1.91-4.32,9,2.78,4A54.14,54.14,0,0,0,89.91,85.64Zm-61.33,0c5.61,3,9.42,2.73,13.27,5.81,6,4.79,0,6.08-2.64,3.37-1.82-1.9.15-2.71,1.55-2-2.69-1.84-4.43-2.18-7.32-3.18,0,0,4.44,6.69,10.81,10.22-1.22-1.3-1-3.69,1.66-2.34,3.79,1.91,4.32,9-2.78,4A54.14,54.14,0,0,1,28.59,85.64Z"
     transform="translate(-3.11 -2.4)"
     id="path40"
     style="fill:#ffffff;fill-opacity:1" />
  <path
     class="cls-5"
     d="M17.91,57.37A36.45,36.45,0,0,0,19.08,62c-.14-1.79,1.78-4,3.1-1.32,1.87,3.81-2.75,10-5,1.55a46.14,46.14,0,0,1-1-4.81Zm4.67,0c-.41,1.7-2,1.29-3.13,0Zm73.4,0c.41,1.7,2,1.29,3.13,0Zm4.67,0A36.59,36.59,0,0,1,99.49,62c.14-1.79-1.78-4-3.1-1.32-1.87,3.81,2.75,10,5,1.55a45.92,45.92,0,0,0,1-4.81ZM29.53,84.5a13.11,13.11,0,0,1-5.15-4.07c-4.47-6.25.19-6.1,2.64-3.37,1.76,2-.2,2.85-1.55,2a15.18,15.18,0,0,0,6.31,4.29,60.77,60.77,0,0,0-8.12-11.91c1.17,1.37,1,3.69-1.66,2.35-3.79-1.91-2.84-10.61,2.78-4,1.9,2.25,3.57,4.64,5,6.67,2.11,3.05,3.71,5.68,5.09,8ZM89,84.5a13.11,13.11,0,0,0,5.14-4.07c4.47-6.25-.19-6.1-2.64-3.37-1.76,2,.2,2.85,1.55,2a15.19,15.19,0,0,1-6.31,4.29,60.79,60.79,0,0,1,8.12-11.91c-1.17,1.37-1,3.69,1.66,2.35,3.79-1.91,2.84-10.61-2.78-4-1.9,2.25-3.57,4.64-5,6.67-2.11,3.05-3.71,5.68-5.09,8Z"
     transform="translate(-3.11 -2.4)"
     id="path42"
     style="fill:#ffffff;fill-opacity:1" />
  <path
     class="cls-5"
     d="M16.17,57.37a72.89,72.89,0,0,1-.54-16C18.31,47.13,21,49,22.27,53.73a8,8,0,0,1,.31,3.65H19.45a4.83,4.83,0,0,1-1.13-2.51c-.31-2.61,1.62-2.14,2.27-.69A22.59,22.59,0,0,0,17.1,47.4a48.94,48.94,0,0,0,.81,10Zm82.94,0a4.83,4.83,0,0,0,1.13-2.51c.31-2.61-1.62-2.14-2.27-.69a22.59,22.59,0,0,1,3.48-6.77,49,49,0,0,1-.81,10h1.74a72.92,72.92,0,0,0,.55-16c-2.68,5.77-5.42,7.59-6.65,12.36A8,8,0,0,0,96,57.38Zm1.82-49.65A32.84,32.84,0,0,1,103,15.37c1.23,9-5.58,4.86-5.8.87-.19-3.49,2.91-2.35,3.61-.66a20.26,20.26,0,0,0-.63-3.06,22.57,22.57,0,0,0-1.08-3,22.43,22.43,0,0,0-3-1.09A20.24,20.24,0,0,0,93,7.82c1.69.7,2.83,3.8-.66,3.61-4-.21-8.16-7,.87-5.8a33.22,33.22,0,0,1,7.67,2.08ZM96.54,48.56c2.92-4,5.66-8.52,6.64-13.35,1.53-7.53-3.84-4.69-4.09-1-.18,2.63,1.89,2.12,2.38.61a26.88,26.88,0,0,1-3.13,7.51V33a19.75,19.75,0,0,1,1.06-5.71c-.28,1.78,1.63,3.54,2.81.79,1.67-3.9-2.37-9.74-4.71-1.35a24.08,24.08,0,0,0-.94,6.19V48.56ZM55,12c4.49-3,9.69-5.73,15.18-6.72,8.55-1.55,5.26,3.91,1,4.16-3,.18-2.34-1.93-.63-2.42A32.66,32.66,0,0,0,62,10.22H72.21a31.06,31.06,0,0,0,8.23-1.11c-2,.29-3.94-1.63-.83-2.83C84.05,4.58,90.56,8.67,81,11a40.4,40.4,0,0,1-8.74,1L55,12ZM17.64,7.72a32.83,32.83,0,0,0-2.05,7.65c-1.23,9,5.58,4.86,5.8.87.19-3.49-2.91-2.35-3.61-.66a20.14,20.14,0,0,1,.63-3.06,22.45,22.45,0,0,1,1.08-3,22.43,22.43,0,0,1,3-1.09,20.23,20.23,0,0,1,3.05-.63c-1.69.7-2.83,3.8.66,3.61,4-.21,8.16-7-.87-5.8a33.24,33.24,0,0,0-7.67,2.08ZM22,48.56c-2.92-4-5.66-8.52-6.64-13.35-1.52-7.53,3.84-4.69,4.09-1,.18,2.63-1.89,2.12-2.38.61a26.91,26.91,0,0,0,3.13,7.51V33a19.75,19.75,0,0,0-1.06-5.71c.28,1.78-1.63,3.54-2.81.79-1.67-3.9,2.37-9.74,4.71-1.35A24.11,24.11,0,0,1,22,32.9l0,15.66ZM63.27,5.22c-4.49,3-9.69,5.73-15.18,6.72-8.55,1.55-5.26-3.91-1-4.16,3-.18,2.34,1.93.63,2.42A32.67,32.67,0,0,0,56.24,7H46a31.06,31.06,0,0,0-8.23,1.11c2-.29,3.94,1.63.83,2.83-4.43,1.7-10.94-2.39-1.43-4.77a40.44,40.44,0,0,1,8.74-1l17.32,0Z"
     transform="translate(-3.11 -2.4)"
     id="path44"
     style="fill:#ffffff;fill-opacity:1" />
  <path
     class="cls-1"
     d="M95.49,90.13a1.14,1.14,0,0,0,2.25-.19,1.12,1.12,0,0,0-.26-.73,1.43,1.43,0,0,0-.65-.38A2.2,2.2,0,0,0,94.4,89.9a2.79,2.79,0,0,0,1.54,3.84,4,4,0,0,0,5.25-3.55,4.14,4.14,0,0,0-2-4.47c-1.89-1-5.85-.56-6.64,3l.15.07c1.82-2.32,4-2.34,5.3-1.65a3,3,0,0,1,1,4.36,2.11,2.11,0,0,1-3,.66,1.71,1.71,0,0,1-.49-2Zm-72.66,0a1.14,1.14,0,0,1-2.26-.19,1.12,1.12,0,0,1,.26-.73,1.44,1.44,0,0,1,.65-.38,2.2,2.2,0,0,1,2.44,1.07,2.79,2.79,0,0,1-1.54,3.84,4,4,0,0,1-5.25-3.55,4.14,4.14,0,0,1,2-4.47c1.89-1,5.85-.56,6.64,3l-.15.07c-1.82-2.32-4-2.34-5.3-1.65a3,3,0,0,0-1,4.36,2.1,2.1,0,0,0,3,.66,1.72,1.72,0,0,0,.49-2Z"
     transform="translate(-3.11 -2.4)"
     id="path46"
     style="fill:#ffffff;fill-opacity:1" />
  <path
     class="cls-2"
     d="M74.08,36.33a3,3,0,0,1-.65-.52V64.53l2,2.88V37.13c-.26-.16-.71-.44-1.1-.67l-.23-.12ZM59.64,62.81a3.72,3.72,0,0,1,2.42-.87c2.39-.17,3.25.78,4.39,1.34a13.24,13.24,0,0,0,6.09,1V34.94A14.3,14.3,0,0,1,66.46,34c-1.16-.51-1.94-1.61-4.47-1.43a2.84,2.84,0,0,0-2.35,1.3V62.81Zm-.9,0V33.92a2.84,2.84,0,0,0-2.35-1.3c-2.53-.18-3.3.92-4.47,1.43a14.3,14.3,0,0,1-6.09.89V64.27a13.24,13.24,0,0,0,6.09-1c1.14-.56,2-1.51,4.39-1.34a3.72,3.72,0,0,1,2.42.87ZM43.3,68.52H57.11a2.29,2.29,0,0,0,1-.67,2.41,2.41,0,0,0,.6-.9l0-.3V64.13a2.64,2.64,0,0,0-.46-.56,3,3,0,0,0-1.83-.75,4.89,4.89,0,0,0-2.6.39c-.67.31-1.16.72-1.76,1a12.86,12.86,0,0,1-4.57,1,15.8,15.8,0,0,1-1.88-.05l-2.34,3.4Zm1-32.19c-.63.35-1.08.63-1.33.79V67.41l2-2.88V35.81a2.91,2.91,0,0,1-.65.52Zm15.33,27.8v2.52a.69.69,0,0,0,0,.3,2.35,2.35,0,0,0,.6.9,2.66,2.66,0,0,0,1,.66H75.09l-2.34-3.4a15.81,15.81,0,0,1-1.88.05,12.85,12.85,0,0,1-4.57-1c-.61-.27-1.1-.67-1.76-1a4.88,4.88,0,0,0-2.6-.39,3,3,0,0,0-1.83.75,2.67,2.67,0,0,0-.46.56Zm-12.2-30a12.09,12.09,0,0,0,4.32-.91c.6-.26,1.08-.66,1.74-1a5.78,5.78,0,0,1,3-.47,3.87,3.87,0,0,1,2.36,1,3.28,3.28,0,0,1,.3.3,3.66,3.66,0,0,1,.3-.3,3.88,3.88,0,0,1,2.36-1,5.78,5.78,0,0,1,3,.47c.66.31,1.14.71,1.74,1A12.1,12.1,0,0,0,71,34.1,17.14,17.14,0,0,0,73.4,34a2.33,2.33,0,0,0,1.13,1.58c.57.37,1.76,1.08,1.76,1.08V69.4H61.36a1.75,1.75,0,0,1-.58-.11,3.31,3.31,0,0,1-1.15-.83,4.46,4.46,0,0,1-.43-.52,4.31,4.31,0,0,1-.43.52,3.3,3.3,0,0,1-1.15.83,1.68,1.68,0,0,1-.38.1H42.1V36.64s1.19-.71,1.76-1.08A2.34,2.34,0,0,0,45,34a17.13,17.13,0,0,0,2.45.12Z"
     transform="translate(-3.11 -2.4)"
     id="path52"
     style="fill:#ffffff;fill-opacity:1" />
  <path
     class="cls-3"
     d="M71.34,61a6.62,6.62,0,0,1-3.45-.26c-1.75-.52-2.75-1.49-4.22-1.61a10,10,0,0,0-2.88.26,4.79,4.79,0,0,1,2.62-1c2,0,3.09,1,4.75,1.64a24.2,24.2,0,0,0,3.18,1Zm0-2.83a6.62,6.62,0,0,1-3.45-.26c-1.75-.52-2.75-1.49-4.22-1.6a10,10,0,0,0-2.88.26,4.79,4.79,0,0,1,2.62-1c2,0,3.09,1,4.75,1.64a24.25,24.25,0,0,0,3.18,1Zm0-2.83a6.62,6.62,0,0,1-3.45-.26c-1.75-.52-2.75-1.49-4.22-1.6a10,10,0,0,0-2.88.26,4.79,4.79,0,0,1,2.62-1c2,0,3.09,1,4.75,1.64a24.22,24.22,0,0,0,3.18,1Zm0-2.83a6.63,6.63,0,0,1-3.45-.26c-1.75-.52-2.75-1.5-4.22-1.61a10,10,0,0,0-2.88.26,4.79,4.79,0,0,1,2.62-1c2,0,3.09,1,4.75,1.64a24,24,0,0,0,3.18,1Zm0-2.83a6.63,6.63,0,0,1-3.45-.26c-1.75-.52-2.75-1.5-4.22-1.61a10,10,0,0,0-2.88.26,4.79,4.79,0,0,1,2.62-1c2,0,3.09,1,4.75,1.64a24.08,24.08,0,0,0,3.18,1Zm0-2.83a6.63,6.63,0,0,1-3.45-.26c-1.75-.52-2.75-1.5-4.22-1.61a10,10,0,0,0-2.88.26,4.79,4.79,0,0,1,2.62-1c2,0,3.09,1,4.75,1.64a24.2,24.2,0,0,0,3.18,1Zm0-2.83a6.62,6.62,0,0,1-3.45-.26c-1.75-.52-2.75-1.49-4.22-1.61a10,10,0,0,0-2.88.26,4.8,4.8,0,0,1,2.62-1c2,0,3.09,1,4.75,1.64a24.09,24.09,0,0,0,3.18,1Zm0-2.83a6.62,6.62,0,0,1-3.45-.26c-1.75-.52-2.75-1.5-4.22-1.61a10,10,0,0,0-2.88.26,4.79,4.79,0,0,1,2.62-1c2,0,3.09,1,4.75,1.64a24.08,24.08,0,0,0,3.18,1Zm0-2.83a6.62,6.62,0,0,1-3.45-.26c-1.75-.52-2.75-1.49-4.22-1.61a10,10,0,0,0-2.88.26,4.79,4.79,0,0,1,2.62-1c2,0,3.09,1,4.75,1.64a24.2,24.2,0,0,0,3.18,1ZM47,61a6.62,6.62,0,0,0,3.45-.26c1.76-.52,2.75-1.49,4.22-1.61a10,10,0,0,1,2.88.26,4.79,4.79,0,0,0-2.62-1c-2,0-3.09,1-4.75,1.64A24.16,24.16,0,0,1,47,61Zm0-2.83a6.62,6.62,0,0,0,3.45-.26c1.76-.52,2.75-1.49,4.22-1.6a10,10,0,0,1,2.88.26,4.79,4.79,0,0,0-2.62-1c-2,0-3.09,1-4.75,1.64a24.22,24.22,0,0,1-3.18,1Zm0-2.83a6.62,6.62,0,0,0,3.45-.26c1.76-.52,2.75-1.49,4.22-1.6a10,10,0,0,1,2.88.26,4.79,4.79,0,0,0-2.62-1c-2,0-3.09,1-4.75,1.64a24.18,24.18,0,0,1-3.18,1Zm0-2.83a6.62,6.62,0,0,0,3.45-.26c1.76-.52,2.75-1.5,4.22-1.61a10,10,0,0,1,2.88.26,4.79,4.79,0,0,0-2.62-1c-2,0-3.09,1-4.75,1.64a24,24,0,0,1-3.18,1Zm0-2.83a6.62,6.62,0,0,0,3.45-.26c1.76-.52,2.75-1.5,4.22-1.61a10,10,0,0,1,2.88.26A4.79,4.79,0,0,0,55,47c-2,0-3.09,1-4.75,1.64a24,24,0,0,1-3.18,1Zm0-2.83a6.62,6.62,0,0,0,3.45-.26c1.76-.52,2.75-1.5,4.22-1.61a10,10,0,0,1,2.88.26,4.79,4.79,0,0,0-2.62-1c-2,0-3.09,1-4.75,1.64a24.16,24.16,0,0,1-3.18,1ZM47,44a6.61,6.61,0,0,0,3.45-.26c1.76-.52,2.75-1.49,4.22-1.61a10,10,0,0,1,2.88.26,4.8,4.8,0,0,0-2.62-1c-2,0-3.09,1-4.75,1.64A24,24,0,0,1,47,44Zm0-2.83a6.61,6.61,0,0,0,3.45-.26c1.76-.52,2.75-1.5,4.22-1.61a10,10,0,0,1,2.88.26,4.79,4.79,0,0,0-2.62-1c-2,0-3.09,1-4.75,1.64a24,24,0,0,1-3.18,1Zm0-2.83a6.62,6.62,0,0,0,3.45-.26c1.76-.52,2.75-1.49,4.22-1.61a10,10,0,0,1,2.88.26,4.79,4.79,0,0,0-2.62-1c-2,0-3.09,1-4.75,1.64a24.16,24.16,0,0,1-3.18,1Z"
     transform="translate(-3.11 -2.4)"
     id="path58"
     style="fill:#ffffff;fill-opacity:1" />
  <path
     class="cls-8"
     d="M150.09,14.44c0-.2-.09-.27-.29-.27h-.49l-.72,0c-.16,0-.72,0-1.63,0h-3.58l-3.13,0-1.39,0h-1.41c-.27,0-.31,0-.36.11A2,2,0,0,0,137,15l-.2,2c0,.13,0,.29,0,.42v0c0,.13.2.22.54.22.11,0,.16,0,.18-.16a2.54,2.54,0,0,1,1.27-1.9c.54-.25,1.18-.34,3.22-.34h.31v11c0,1.25-.07,1.59-.4,1.77a4,4,0,0,1-1.52.34c-.42,0-.49.07-.49.29v.13c0,.22.07.29.25.29h.27c.22,0,.58,0,1.09,0,.83,0,1.52,0,2,0l2.32,0c.42,0,.67,0,.76,0h.31c.34,0,.38,0,.38-.29v-.22c0-.16-.09-.18-.63-.22a4.68,4.68,0,0,1-1.5-.25c-.42-.2-.51-.51-.51-1.83v-11h.94c.69,0,1.47,0,1.92.07a2.67,2.67,0,0,1,.85.25c.45.25.71.76.83,1.68,0,.34.09.38.4.38s.36,0,.38-.27l0-.36V16.5l.07-1.52v-.25l0-.29Z"
     transform="translate(-3.11 -2.4)"
     id="path60" />
  <path
     class="cls-8"
     d="M171.78,28.84v-.09c0-.29-.07-.34-.49-.36l-.51,0,0,0c-1-.11-1.09-.36-1.09-2V17c0-1.65.11-1.88,1-2h0l.49-.07c.43,0,.49-.07.49-.38v-.09c0-.2-.07-.27-.27-.27l-.2,0h-.94l-.74,0c-.63,0-1.09,0-1.34,0H168a14,14,0,0,0-1.45,0h-.8l-.18,0c-.25,0-.29.07-.29.29v.07c0,.31.07.36.47.38a4,4,0,0,1,.51.07h0c.92.13,1,.36,1,2v3.69h-7.51V17c0-1.65.11-1.88,1-2h0l.49-.07c.42,0,.49-.07.49-.38v-.09c0-.2-.07-.27-.27-.27s-.49,0-1,0c-.87,0-1.54,0-2,0s-.83,0-1.27,0l-.54,0h-.8l-.18,0c-.25,0-.29.07-.29.29v.07c0,.31.07.36.47.38a4,4,0,0,1,.51.07h0c.92.13,1,.36,1,2v9.34a4.3,4.3,0,0,1-.16,1.56c-.11.22-.25.29-.87.45h0a2,2,0,0,1-.51.07c-.4,0-.47,0-.47.38v.09c0,.2.07.25.27.25h.6l.54,0c.74,0,1.39,0,1.94,0s1.68,0,2.61,0h.36c.22,0,.27,0,.27-.31V28.7c0-.25-.09-.29-.47-.29l-.56-.07h0c-1.07-.13-1.18-.34-1.18-2V21.84h7.51v4.49c0,1.72-.07,1.83-1.12,2h0a2.5,2.5,0,0,1-.54.07c-.38,0-.45.07-.45.34v.07c0,.27.07.31.29.31h.67l.58,0c.63,0,1.23,0,1.81,0s1,0,1.41,0l.87,0h.72c.2,0,.25,0,.25-.29Z"
     transform="translate(-3.11 -2.4)"
     id="path62" />
  <path
     class="cls-8"
     d="M189.13,25.55c0-.16-.2-.27-.51-.27-.09,0-.16.07-.25.27-.51,1.21-.87,1.61-1.68,1.94a6.88,6.88,0,0,1-2.93.45c-1.72,0-2-.2-2-1.32v-4.8h.51l1.12,0c2,0,2.39.07,2.59.4a4.59,4.59,0,0,1,.31,1.39c0,.18.09.22.22.22.4,0,.49,0,.49-.31a2,2,0,0,0,0-.36c0-.63,0-1.27,0-2,0-.54,0-1.05,0-1.5v-.58c0-.22-.07-.29-.4-.29s-.31.07-.34.4c-.07,1.16-.4,1.5-1.56,1.52l-1.12,0H182.3l-.54,0v-5.5l.56,0h1.14a8,8,0,0,1,2.91.36,2.88,2.88,0,0,1,1.14,1.59l.09.27c0,.11.07.13.13.13q.54,0,.54-.27a1.18,1.18,0,0,0,0-.27c0-.31-.11-.83-.18-1.72,0-.25,0-.45,0-.58,0-.54-.09-.6-.58-.6a2.06,2.06,0,0,0-.36,0h-1.63l-2.28,0h-3.58c-.76,0-1.27,0-1.54,0l-.42,0c-.18,0-.22.07-.22.27v.2c0,.2.07.27.25.27h.4l.45,0a1.45,1.45,0,0,1,.54.22c.34.22.4.56.4,1.79v9.79c0,.8,0,.89-.18,1.14a.48.48,0,0,1-.18.22,2.77,2.77,0,0,1-1.43.31c-.18,0-.25.07-.25.25v.22c0,.18.07.22.27.22h.74l1.3,0c1.16,0,2,0,2.62,0h.49l2.66,0h1.27c.54,0,.87,0,1,0h.4c.34,0,.4-.11.45-.45,0-.09,0-.25,0-.45l.18-1.07a12.44,12.44,0,0,1,.29-1.36,1,1,0,0,0,0-.25Z"
     transform="translate(-3.11 -2.4)"
     id="path64" />
  <path
     class="cls-8"
     d="M222.18,14.56v-.13c0-.18-.07-.25-.27-.25s-.49,0-1.07,0c-.89,0-1.52,0-1.86,0l-1.25,0h-.94l-.22,0h0c-.16,0-.22,0-.25.22v.11s0,0,0,.09c0,.25.11.31.69.36.85,0,1.32.22,1.47.54a5.41,5.41,0,0,1,.18,1.7l.07,5.23v.45c0,1.9-.13,2.7-.6,3.49a4,4,0,0,1-3.69,1.77c-1.72,0-3.22-.69-3.73-1.72-.4-.8-.51-1.63-.51-3.69V17s0-.22,0-.54,0-.42,0-.54a.88.88,0,0,1,.33-.67,4.28,4.28,0,0,1,1.81-.36c.2,0,.25-.07.25-.31v-.2c0-.13-.09-.2-.29-.2h0l-.16,0h-1.38l-1.65,0-2,0h-.74l-.29,0c-.18,0-.22.09-.22.27,0,.4,0,.47.31.49l.36,0c.74,0,1.12.29,1.23.72a4.82,4.82,0,0,1,.09,1.32v7.42a6.23,6.23,0,0,0,.56,2.82,3.48,3.48,0,0,0,1.5,1.45,7.57,7.57,0,0,0,3.82.83c2.66,0,4.67-.92,5.54-2.5.63-1.16.74-1.74.76-4.56l0-5.25c0-1.25.13-1.81.4-2a3.4,3.4,0,0,1,1.39-.31c.27,0,.34-.07.34-.34Z"
     transform="translate(-3.11 -2.4)"
     id="path66" />
  <path
     class="cls-8"
     d="M243.85,14.42c0-.18-.07-.25-.34-.25l-.25,0-.67,0H241l-1.72,0h-.76l-.27,0c-.27,0-.33.07-.33.36s.07.38.38.4a9.93,9.93,0,0,1,1.05.13,1,1,0,0,1,.85.49,3.62,3.62,0,0,1,.2,1.5l.18,8.36L231.87,14.2l-.4,0h-1.9l-1.21,0-.34,0h0c-.25,0-.29.09-.29.49,0,.18.09.27.36.29a2.69,2.69,0,0,1,1.85.8l-.36,9.88,0,.85c0,.92-.13,1.32-.4,1.54a1.73,1.73,0,0,1-.83.27l-.38.07c-.47.09-.51.13-.51.45s.07.31.27.31l.33,0h.78l1.45,0c.42,0,.94,0,1.56,0l1,0c.47,0,.52,0,.52-.27s0-.38-.34-.42a8.48,8.48,0,0,1-1.14-.22,1,1,0,0,1-.8-.6,5.45,5.45,0,0,1-.11-1.52v-.36l.13-8.69,9.34,12a1.62,1.62,0,0,0,.38.4.74.74,0,0,0,.4.07.9.9,0,0,0,.47-.07c0-.07.07-.13.07-.51l0-11.73c0-1.18.11-1.68.45-1.9a3.11,3.11,0,0,1,1.27-.31c.27,0,.34-.13.34-.51Z"
     transform="translate(-3.11 -2.4)"
     id="path68" />
  <path
     class="cls-8"
     d="M256.08,28.81v-.2c0-.11-.09-.16-.29-.18l-.54-.07c-1.05-.13-1.28-.34-1.3-1.3l0-.74V17s0-.29,0-.76a2.63,2.63,0,0,1,0-.45.73.73,0,0,1,.29-.58,3.65,3.65,0,0,1,1.41-.34c.25,0,.27-.07.27-.33v-.09c0-.2,0-.29-.27-.27l-.38,0-1,0h-1.5l-1.88,0h-1a.45.45,0,0,0-.16,0c-.2,0-.25,0-.25.2l0,.09v.07c0,.31,0,.33.25.36a3.76,3.76,0,0,1,1.43.29c.29.22.36.54.36,1.81v9.34c0,1.14-.09,1.61-.36,1.79a2.54,2.54,0,0,1-1.41.29c-.22,0-.27.09-.27.38v.09c0,.2.07.25.27.25h.31l.69,0c.74,0,1.21,0,1.43,0h1c.31,0,.78,0,1.45,0,.33,0,.58,0,.74,0h.36c.22,0,.27,0,.27-.31Z"
     transform="translate(-3.11 -2.4)"
     id="path70" />
  <path
     class="cls-8"
     d="M277.64,14.58c0-.36,0-.4-.27-.4l-.2,0c-.54,0-1.23,0-1.74,0h-1.83c-.42,0-.72,0-.89,0l-.22,0c-.2,0-.27.11-.27.38s.07.34.25.36l.38,0c.74.09.78.09,1,.22a.51.51,0,0,1,.22.42,2.2,2.2,0,0,1-.16.76l-.29.78-.27.74-3.15,8.47-3.64-9.05-.33-.83a2.34,2.34,0,0,1-.25-.89c0-.38.33-.49,1.38-.63l.34,0c.2,0,.27-.07.27-.33s0-.4-.25-.4l-.27,0h-.72c-1,0-1.68,0-1.92,0H263a8.76,8.76,0,0,1-1.09,0l-.38,0c-.22,0-.27.07-.27.38s0,.34.38.38a3,3,0,0,1,1.27.36c.29.2.34.31,1,1.79l.47,1.05L269,29l.13.31c.09.2.13.22.4.22h.31l.13,0c.11,0,.16,0,.22-.2l.07-.16L274.8,18c.2-.47.31-.74.33-.8.18-.4.36-.8.58-1.25a3.89,3.89,0,0,1,.38-.65,1.53,1.53,0,0,1,1-.4c.36,0,.4-.07.47-.11s0-.11,0-.25Z"
     transform="translate(-3.11 -2.4)"
     id="path72" />
  <path
     class="cls-8"
     d="M294.54,25.55c0-.16-.2-.27-.51-.27-.09,0-.16.07-.25.27-.51,1.21-.87,1.61-1.68,1.94a6.88,6.88,0,0,1-2.93.45c-1.72,0-2-.2-2-1.32v-4.8h.52l1.12,0c2,0,2.39.07,2.59.4a4.65,4.65,0,0,1,.31,1.39c0,.18.09.22.22.22.4,0,.49,0,.49-.31a2.12,2.12,0,0,0,0-.36c0-.63,0-1.27,0-2,0-.54,0-1.05,0-1.5v-.58c0-.22-.07-.29-.4-.29s-.31.07-.33.4c-.07,1.16-.4,1.5-1.57,1.52l-1.12,0H287.7l-.54,0v-5.5l.56,0h1.14a8,8,0,0,1,2.91.36,2.88,2.88,0,0,1,1.14,1.59l.09.27c0,.11.07.13.13.13q.54,0,.54-.27a1.15,1.15,0,0,0,0-.27c0-.31-.11-.83-.18-1.72,0-.25,0-.45,0-.58,0-.54-.09-.6-.58-.6a2.05,2.05,0,0,0-.36,0h-1.63l-2.28,0H285c-.76,0-1.28,0-1.54,0l-.42,0c-.18,0-.22.07-.22.27v.2c0,.2.07.27.25.27h.4l.45,0a1.44,1.44,0,0,1,.54.22c.34.22.4.56.4,1.79v9.79c0,.8,0,.89-.18,1.14a.46.46,0,0,1-.18.22,2.77,2.77,0,0,1-1.43.31c-.18,0-.25.07-.25.25v.22c0,.18.07.22.27.22h.74l1.3,0c1.16,0,2,0,2.62,0h.49l2.66,0h1.27c.54,0,.87,0,1,0h.4c.33,0,.4-.11.45-.45,0-.09,0-.25,0-.45l.18-1.07a12.41,12.41,0,0,1,.29-1.36,1,1,0,0,0,0-.25Z"
     transform="translate(-3.11 -2.4)"
     id="path74" />
  <path
     class="cls-7"
     d="M314.51,28.81c0-.27-.07-.34-.38-.34A3.48,3.48,0,0,1,311.65,27a26.46,26.46,0,0,1-2.21-3.46A14.6,14.6,0,0,0,308,21.26a4,4,0,0,0,3-3.78,3.25,3.25,0,0,0-1.61-2.91,7.68,7.68,0,0,0-4-.78,44.61,44.61,0,0,0-4.92.36c-.34,0-.4,0-.47.09a.4.4,0,0,0-.09.29c0,.27.07.36.29.36l.51,0c.67,0,1.07.22,1.23.49s.13.36.16,1.14l0,.69v9.1l0,.54c0,.31,0,.51,0,.56a1.12,1.12,0,0,1-.13.47.6.6,0,0,1-.18.22,2.52,2.52,0,0,1-1,.27l-.38,0c-.2,0-.25.07-.25.34s0,.36.25.36h0l.45,0h.89l1.79,0,1.83,0,.72,0h.36c.18,0,.22,0,.25-.2V28.7c0-.22-.07-.27-.31-.29l-.47,0a1.44,1.44,0,0,1-1.25-.51,2.36,2.36,0,0,1-.13-1c0-.29,0-.45,0-.54V22h.71c.8,0,1.09.34,2.12,2.32a12.83,12.83,0,0,0,2.7,4.09,3.68,3.68,0,0,0,2.59.92,5.87,5.87,0,0,0,1.85-.25c.09,0,.13-.13.13-.31Zm-6-11c0,2-1.41,3.2-3.73,3.2h-.42V14.87h.11a2.73,2.73,0,0,1,.36,0c2.39,0,3.69,1.07,3.69,3Z"
     transform="translate(-3.11 -2.4)"
     id="path76" />
  <path
     class="cls-8"
     d="M329.83,24.95a3.83,3.83,0,0,0-1.09-2.77,9.54,9.54,0,0,0-2.7-1.83,8.41,8.41,0,0,1-2.77-1.81,1.94,1.94,0,0,1-.58-1.39c0-1.27,1.14-2.21,2.7-2.21a3,3,0,0,1,3.08,2.41c.07.22.16.31.27.31.31,0,.51-.11.51-.27v-.16l0-.11-.18-1.81a.69.69,0,0,0,0-.18c0-.42-.09-.51-.29-.67a7.19,7.19,0,0,0-3.17-.69c-3,0-4.92,1.59-4.92,4a3.77,3.77,0,0,0,1.5,3,14.93,14.93,0,0,0,2.23,1.41,9.13,9.13,0,0,1,2.75,1.83,2.23,2.23,0,0,1,.63,1.57,2.81,2.81,0,0,1-3.06,2.68,3.93,3.93,0,0,1-3.6-2.53l-.22-.49c0-.13-.09-.18-.18-.18-.33,0-.58.11-.58.27a.75.75,0,0,0,0,.2l0,.33.38,2.06c0,.09,0,.16,0,.22.07.45.13.56.38.69a8.42,8.42,0,0,0,3.33.65c3.33,0,5.52-1.81,5.52-4.58Z"
     transform="translate(-3.11 -2.4)"
     id="path78" />
  <path
     class="cls-8"
     d="M342.35,28.81v-.2c0-.11-.09-.16-.29-.18l-.54-.07c-1.05-.13-1.27-.34-1.3-1.3l0-.74V17s0-.29,0-.76a2.81,2.81,0,0,1,0-.45.74.74,0,0,1,.29-.58,3.64,3.64,0,0,1,1.41-.34c.25,0,.27-.07.27-.33v-.09c0-.2,0-.29-.27-.27l-.38,0-1,0h-1.5l-1.88,0h-1a.44.44,0,0,0-.16,0c-.2,0-.25,0-.25.2l0,.09v.07c0,.31,0,.33.25.36a3.77,3.77,0,0,1,1.43.29c.29.22.36.54.36,1.81v9.34c0,1.14-.09,1.61-.36,1.79a2.54,2.54,0,0,1-1.41.29c-.22,0-.27.09-.27.38v.09c0,.2.07.25.27.25h.31l.69,0c.74,0,1.21,0,1.43,0h1c.31,0,.78,0,1.45,0,.33,0,.58,0,.74,0h.36c.22,0,.27,0,.27-.31Z"
     transform="translate(-3.11 -2.4)"
     id="path80" />
  <path
     class="cls-8"
     d="M360.85,14.44c0-.2-.09-.27-.29-.27h-.49l-.72,0c-.16,0-.72,0-1.63,0h-3.58l-3.13,0-1.39,0h-1.41c-.27,0-.31,0-.36.11a2,2,0,0,0-.11.69l-.2,2c0,.13,0,.29,0,.42v0c0,.13.2.22.54.22.11,0,.16,0,.18-.16a2.54,2.54,0,0,1,1.27-1.9c.54-.25,1.18-.34,3.22-.34H353v11c0,1.25-.07,1.59-.4,1.77a4,4,0,0,1-1.52.34c-.42,0-.49.07-.49.29v.13c0,.22.07.29.25.29h.27c.22,0,.58,0,1.09,0,.83,0,1.52,0,2,0l2.32,0c.43,0,.67,0,.76,0h.31c.34,0,.38,0,.38-.29v-.22c0-.16-.09-.18-.63-.22a4.67,4.67,0,0,1-1.5-.25c-.43-.2-.52-.51-.52-1.83v-11h.94c.69,0,1.47,0,1.92.07a2.66,2.66,0,0,1,.85.25c.45.25.72.76.83,1.68,0,.34.09.38.4.38s.36,0,.38-.27l0-.36V16.5l.07-1.52v-.25l0-.29Z"
     transform="translate(-3.11 -2.4)"
     id="path82" />
  <path
     class="cls-8"
     d="M381,14.53c0-.27,0-.36-.25-.36h0l-.31,0h-.74l-1.45,0c-.38,0-.65,0-1.54,0h-.78a.78.78,0,0,1-.27,0h0c-.2,0-.27.09-.27.31s0,.31.11.36.11,0,.16,0l.45,0c.74,0,1.14.25,1.14.58a5.08,5.08,0,0,1-.65,1.47L374,21.37l-2.79-4.6a3.52,3.52,0,0,1-.56-1.21c0-.36.36-.54,1.09-.6l.47,0c.27,0,.33-.09.33-.38s0-.38-.29-.36l-.45,0-2.93,0c-.78,0-1.43,0-1.92,0-.31,0-.51,0-.6,0l-.36,0h0c-.22,0-.25.07-.25.38s0,.31.2.34l.36,0c.85.11,1.16.33,1.81,1.41.07.09.18.27.33.51l3.75,5.9v3.58c0,1.3,0,1.56-.36,1.77a3.29,3.29,0,0,1-1.59.31c-.4,0-.47.07-.47.29v.13c0,.25,0,.29.27.29h0l.36,0h1.12l1.83,0,2.06,0h1l.47,0h0c.2,0,.25,0,.25-.25V28.7c0-.25,0-.27-.58-.31-1.32-.09-1.77-.22-1.9-.51a2.11,2.11,0,0,1-.13-1c0-.31,0-.51,0-.6v-3.6l3.75-5.88c.78-1.23,1-1.45,1.34-1.65a2.73,2.73,0,0,1,.94-.29c.45,0,.51-.09.51-.36Z"
     transform="translate(-3.11 -2.4)"
     id="path84" />
  <path
     class="cls-7"
     d="M413.44,21a7.05,7.05,0,0,0-7.35-7.24,8,8,0,0,0-8.2,8.31,7.16,7.16,0,0,0,7.46,7.49c4.63,0,7.87-3.31,8.07-8.2a1.86,1.86,0,0,0,0-.36ZM411,22c0,3.71-2.15,6.3-5.25,6.3s-5.48-3-5.48-7.11c0-3.78,2.08-6.28,5.23-6.28S411,18,411,22Z"
     transform="translate(-3.11 -2.4)"
     id="path86" />
  <path
     class="cls-8"
     d="M430.05,17.37v0c0-.11,0-.2,0-.29l-.22-2.12,0-.38c0-.31-.11-.38-.33-.38a1.83,1.83,0,0,1-.25,0h-2.75l-2.48,0c-.85,0-1.65,0-2.48,0-.63,0-1,0-1.23,0a3.06,3.06,0,0,1-.54,0h0c-.2,0-.25.07-.25.31s0,.31.09.36.09,0,.45.07c1.3,0,1.5.34,1.5,2.08v9.34a5.44,5.44,0,0,1-.16,1.56c-.11.27-.58.47-1.34.51-.52,0-.54,0-.54.38s0,.34.27.34H420l.83,0,1.9,0,2.06,0,1.45,0h.36c.18,0,.22,0,.22-.29v-.18c0-.22-.07-.27-.47-.29a5.23,5.23,0,0,1-2.19-.4c-.27-.16-.36-.45-.36-1.18V21.86h1.14l1.18,0h1.05a1.47,1.47,0,0,1,.58.16.61.61,0,0,1,.25.22,2.69,2.69,0,0,1,.29,1c0,.56.07.6.29.6.38,0,.45,0,.45-.29v0c0-.11,0-.27,0-.49,0-.54,0-.92,0-1.16v-.42c0-.78,0-1.63,0-2a2.29,2.29,0,0,0,0-.34c0-.22-.07-.27-.36-.27s-.33.07-.36.31c-.07.83-.25,1.21-.63,1.39s-.92.25-3,.25h-.94V15.34l.43,0h.72a9.08,9.08,0,0,1,3.15.31,2,2,0,0,1,1.05,1.27l.16.49c.07.16.13.22.25.22.31,0,.52-.09.52-.25Z"
     transform="translate(-3.11 -2.4)"
     id="path88" />
  <path
     class="cls-7"
     d="M345.6,114.32c0,3.12-2.66,6.85-6.59,6.85a3.78,3.78,0,0,1-3.75-4.13c0-3.12,2.66-6.86,6.59-6.86a3.78,3.78,0,0,1,3.75,4.13Zm-8.33,3.61c0,1.7.72,2.47,1.75,2.47,1.61,0,4.58-3.64,4.58-7,0-1.7-.72-2.47-1.75-2.47-1.61,0-4.58,3.64-4.58,7Z"
     transform="translate(-3.11 -2.4)"
     id="path90" />
  <path
     class="cls-8"
     d="M178.81,109.64c-.19.49-5.33,8-5.33,8-.59.85-1.95,3-2.21,3.48l-1.25.07c.11-5.14.8-13.16.8-14.84s-.2-1.83-2-1.83v-.79c.77,0,2.21.06,3.62.06,1,0,1.95,0,2.91-.05v.77c-1.82.14-2.17.54-2.27,2.11l-.59,9.94c0,.28,0,.48-.05.65l.64-.87,1.71-2.43c1.33-1.9,2.93-4.21,4.09-5.81l.16-2.5c0-.62-.41-1.07-1.51-1.07v-.79c.43,0,1.65.07,3,.07s2,0,2.77-.05v.78c-1.58.05-2,.35-2.08,2.59l-.43,6.84c-.11,1.49-.32,3.38-.32,3.7.12.15,7.71-10.7,7.71-12.34,0-.55-.45-.86-1.28-.79v-.79c.48,0,1.44.06,2.34.06,1.06,0,1.89,0,2.4-.05v.78c-1.17.05-1.62.43-2.53,2a158,158,0,0,1-9.84,14.62l-1.24,0,.78-11.54Z"
     transform="translate(-3.11 -2.4)"
     id="path92" />
  <path
     class="cls-7"
     d="M193.27,114.51a.81.81,0,0,0,0,.2l0-.2Zm.21-.55c-.09.24-.16.42-.21.55l-.12.13.12-.13.39-.5c.32-.42.75-1,1.24-1.54,1-1.11,2.23-2.27,3.41-2.27,1,0,1.62.67,1.62,2a13.23,13.23,0,0,1-1.08,4c-.27.69-.53,1.32-.74,1.82a5,5,0,0,0-.32.92c0,.12,0,.17.25.17a2.26,2.26,0,0,0,.92-.65c.38-.36.75-.77.92-.94l.57.46c-1.12,1.34-2.71,3.14-4.33,3.14a.76.76,0,0,1-.87-.87,4.91,4.91,0,0,1,.43-1.52c.25-.63.59-1.36.92-2.11a13.09,13.09,0,0,0,1.32-3.79c0-.48-.15-.68-.63-.68-1.56,0-5,4.23-6.19,8.32-.11.36-.42.44-1,.44s-.87-.07-.87-.44a37,37,0,0,1,1.36-3.79c.75-1.94,1.63-4.23,2.2-5.84.48-1.38,1-2.8,1.39-3.95a13,13,0,0,0,.66-2.27c0-.2-.11-.36-.59-.41s-.86-.19-.86-.49a.32.32,0,0,1,.18-.3.86.86,0,0,1,.37-.06h2.8c.29,0,.47.07.47.36s-1,3.29-2.55,7.23c-.53,1.39-.94,2.35-1.19,3Z"
     transform="translate(-3.11 -2.4)"
     id="path94" />
  <path
     class="cls-7"
     d="M208.15,117l-.21.26c-.15.19-.33.45-.54.76-1.66,2.44-2.92,3.12-4.05,3.12-.94,0-1.73-.74-1.73-2.18,0-2.12,2.41-8.59,7.25-8.59a4.14,4.14,0,0,1,.89.1l.32.06.26,0a.24.24,0,0,0,.16-.07,1.17,1.17,0,0,0,.15-.19l.08-.11.09-.11a.38.38,0,0,1,.28-.13,1.57,1.57,0,0,1,.56.19c.21.11.47.3.47.58a8.74,8.74,0,0,1-.47,1.43c-.28.74-.64,1.69-1,2.66a29.88,29.88,0,0,0-1.46,4.33.48.48,0,0,0,.05.29s0,0,.14,0a.9.9,0,0,0,.47-.29,7.42,7.42,0,0,0,.64-.69c.22-.26.43-.51.6-.7a2.76,2.76,0,0,1,.25-.24.43.43,0,0,1,.25-.11c.26,0,.36.14.36.33s-2.1,3.38-3.86,3.38c-.62,0-.92-.37-.92-1.08a5.41,5.41,0,0,1,.5-1.86c.12-.29.25-.56.34-.77l.11-.26c0-.14,0-.16,0-.16Zm1.43-4.58a1.13,1.13,0,0,0-1.16-1.27c-2.34,0-4.79,4.38-4.79,7.3,0,.81.26.95.65.95,2,0,5.3-5.72,5.3-7Z"
     transform="translate(-3.11 -2.4)"
     id="path96" />
  <path
     class="cls-8"
     d="M214.21,121c-.25,0-.36-.16-.36-.42a8,8,0,0,1,.4-1.27c.24-.66.55-1.52.86-2.4a21.19,21.19,0,0,0,1.25-4.42c0-.4-.13-.52-.25-.52s-.45.23-.78.58-.62.73-.81,1l-.23.28-.11.11a.28.28,0,0,1-.15.06.3.3,0,0,1-.28-.31c0-.54,2.43-3.41,3.59-3.41a.78.78,0,0,1,.87.9,15.89,15.89,0,0,1-.44,2.19l-.3,1.24c-.09.36-.14.59-.14.63a1,1,0,0,0,.23-.3c.36-.63,1-1.78,1.73-2.78s1.51-1.88,2.2-1.88.95.59.95,1.35c0,.92-.33,1.4-.84,1.4a.82.82,0,0,1-.82-.58l-.08-.19a.71.71,0,0,0-.07-.14.19.19,0,0,0-.18-.11c-.38,0-1.65,1.48-4.08,6.93l-.72,1.63a1.63,1.63,0,0,1-.19.34.36.36,0,0,1-.3.14Z"
     transform="translate(-3.11 -2.4)"
     id="path98" />
  <path
     class="cls-7"
     d="M225.47,119.65a4,4,0,0,0,2-.77c.3-.2.55-.39.75-.54l.25-.18c.12-.07.16-.09.2-.09.21,0,.31.12.31.34a6.49,6.49,0,0,1-4.58,2.77,2.77,2.77,0,0,1-2.87-3c0-3.88,4.38-8,7.39-8a2,2,0,0,1,2.21,1.81c0,2.17-3.5,2.88-5.09,2.88-.55,0-.82,0-1.14,0a5.74,5.74,0,0,0-1.09,3.13,1.55,1.55,0,0,0,1.64,1.69Zm3.13-8.68c-1.22,0-2.7,2.17-3.18,3,2.39-.07,4-.84,4-2.12a.84.84,0,0,0-.81-.89Z"
     transform="translate(-3.11 -2.4)"
     id="path100" />
  <path
     class="cls-8"
     d="M250.46,109.64c-.2.49-5.33,8-5.33,8-.59.85-1.95,3-2.21,3.48l-1.25.07c.11-5.14.8-13.16.8-14.84s-.2-1.83-2-1.83v-.79c.77,0,2.21.06,3.62.06,1,0,1.95,0,2.91-.05v.77c-1.82.14-2.17.54-2.27,2.11l-.59,9.94c0,.28,0,.48-.05.65l.64-.87,1.71-2.43c1.33-1.9,2.93-4.21,4.09-5.81l.16-2.5c0-.62-.41-1.07-1.51-1.07v-.79c.43,0,1.65.07,3,.07s2,0,2.77-.05v.78c-1.58.05-2,.35-2.08,2.59l-.43,6.84c-.11,1.49-.32,3.38-.32,3.7.12.15,7.71-10.7,7.71-12.34,0-.55-.45-.86-1.28-.79v-.79c.48,0,1.43.06,2.34.06,1.07,0,1.89,0,2.4-.05v.78c-1.17.05-1.62.43-2.53,2a157.8,157.8,0,0,1-9.84,14.62l-1.24,0,.78-11.54Z"
     transform="translate(-3.11 -2.4)"
     id="path102" />
  <path
     class="cls-7"
     d="M263.7,117l-.21.26c-.15.19-.33.45-.54.76-1.66,2.44-2.92,3.12-4.05,3.12-.94,0-1.73-.74-1.73-2.18,0-2.12,2.41-8.59,7.25-8.59a4.14,4.14,0,0,1,.89.1l.31.06.26,0a.23.23,0,0,0,.15-.07,1.09,1.09,0,0,0,.15-.19l.08-.11.09-.11a.38.38,0,0,1,.28-.13,1.55,1.55,0,0,1,.56.19c.21.11.47.3.47.58a8.66,8.66,0,0,1-.47,1.43c-.28.74-.64,1.69-1,2.66a29.84,29.84,0,0,0-1.46,4.33.49.49,0,0,0,.05.29s0,0,.15,0a.91.91,0,0,0,.47-.29,7.31,7.31,0,0,0,.64-.69c.22-.26.43-.51.6-.7l.25-.24a.44.44,0,0,1,.25-.11c.25,0,.36.14.36.33s-2.1,3.38-3.86,3.38c-.62,0-.92-.37-.92-1.08a5.39,5.39,0,0,1,.5-1.86c.12-.29.25-.56.34-.77l.11-.26c0-.14,0-.16,0-.16Zm1.43-4.58a1.13,1.13,0,0,0-1.16-1.27c-2.34,0-4.79,4.38-4.79,7.3,0,.81.26.95.65.95,1.95,0,5.3-5.72,5.3-7Z"
     transform="translate(-3.11 -2.4)"
     id="path104" />
  <path
     class="cls-8"
     d="M273.11,114a1.67,1.67,0,0,0,.3-.32c.14-.19.37-.5.66-.85a13.8,13.8,0,0,1,1-1.16,4.38,4.38,0,0,1,2.78-1.48,1.82,1.82,0,0,1,1.83,1.91,12.15,12.15,0,0,1-1.27,4c-.31.7-.63,1.36-.86,1.89a4.26,4.26,0,0,0-.38,1c0,.18.08.23.14.23a6.28,6.28,0,0,0,2.1-1.49l.55.41c-1.49,1.66-3.64,3-4.73,3a.69.69,0,0,1-.76-.74,6.3,6.3,0,0,1,.51-1.27c.3-.65.7-1.49,1.1-2.36a17,17,0,0,0,1.59-4.31c0-.61-.36-.79-.73-.79-1.61,0-4.52,3.77-5.84,7.45l-.39,1.12a2.89,2.89,0,0,1-.27.59l-.15.07h-.67a4,4,0,0,1-.61,0c-.12,0-.21-.08-.21-.21a6.9,6.9,0,0,1,.44-1.51c.26-.72.61-1.61,1-2.53a21,21,0,0,0,1.38-4.43c0-.12,0-.16,0-.17-.31,0-.83.39-1.39.89l-.72.65-.26.22c-.13.08-.17.11-.22.11a.32.32,0,0,1-.31-.36c0-.49,3.26-3.41,4.42-3.41a.81.81,0,0,1,.9.84,6.65,6.65,0,0,1-.46,1.77l-.31.84-.1.28,0,.07Z"
     transform="translate(-3.11 -2.4)"
     id="path106" />
  <path
     class="cls-7"
     d="M287.92,117l-.21.26c-.15.19-.33.45-.54.76-1.66,2.44-2.92,3.12-4.05,3.12-.94,0-1.73-.74-1.73-2.18,0-2.12,2.41-8.59,7.25-8.59a4.14,4.14,0,0,1,.89.1l.31.06.26,0a.23.23,0,0,0,.15-.07,1.09,1.09,0,0,0,.15-.19l.08-.11.09-.11a.38.38,0,0,1,.28-.13,1.55,1.55,0,0,1,.56.19c.21.11.47.3.47.58a8.66,8.66,0,0,1-.47,1.43c-.28.74-.64,1.69-1,2.66a29.83,29.83,0,0,0-1.46,4.33.49.49,0,0,0,.05.29s0,0,.15,0a.91.91,0,0,0,.47-.29,7.31,7.31,0,0,0,.64-.69c.22-.26.43-.51.6-.7l.25-.24a.44.44,0,0,1,.25-.11c.26,0,.36.14.36.33s-2.1,3.38-3.86,3.38c-.62,0-.92-.37-.92-1.08a5.39,5.39,0,0,1,.5-1.86c.12-.29.25-.56.34-.77l.11-.26c0-.14,0-.16,0-.16Zm1.43-4.58a1.13,1.13,0,0,0-1.16-1.27c-2.34,0-4.79,4.38-4.79,7.3,0,.81.26.95.65.95,2,0,5.3-5.72,5.3-7Z"
     transform="translate(-3.11 -2.4)"
     id="path108" />
  <path
     class="cls-8"
     d="M297.83,114a1.63,1.63,0,0,0,.3-.32c.14-.19.37-.5.66-.85a13.23,13.23,0,0,1,1-1.16,4.38,4.38,0,0,1,2.78-1.48,1.82,1.82,0,0,1,1.83,1.91,12.16,12.16,0,0,1-1.27,4c-.31.7-.63,1.36-.86,1.89a4.25,4.25,0,0,0-.38,1c0,.18.08.23.14.23a6.28,6.28,0,0,0,2.1-1.49l.55.41c-1.49,1.66-3.64,3-4.73,3a.69.69,0,0,1-.76-.74,6.3,6.3,0,0,1,.51-1.27c.3-.65.7-1.49,1.1-2.36a17,17,0,0,0,1.59-4.31c0-.61-.36-.79-.73-.79-1.61,0-4.53,3.77-5.84,7.45l-.39,1.12a2.88,2.88,0,0,1-.26.59l-.15.07h-.67a4,4,0,0,1-.61,0c-.12,0-.21-.08-.21-.21a6.9,6.9,0,0,1,.44-1.51c.26-.72.61-1.61,1-2.53a20.89,20.89,0,0,0,1.38-4.43c0-.12,0-.16,0-.17-.31,0-.83.39-1.39.89l-.72.65-.26.22c-.13.08-.17.11-.22.11s-.31-.16-.31-.36c0-.49,3.26-3.41,4.42-3.41a.81.81,0,0,1,.9.84,6.65,6.65,0,0,1-.46,1.77l-.31.84-.1.28,0,.07Z"
     transform="translate(-3.11 -2.4)"
     id="path110" />
  <path
     class="cls-7"
     d="M309.35,118.11a3,3,0,0,1-.45-.22l-.27-.17c-.7.43-.78.61-.78.79s.34.58,1,1,1.46.77,2.3,1.2c1.64.83,3.42,1.83,3.42,3,0,1.66-1.89,3.54-6.24,3.54-2.77,0-4.53-1.4-4.53-2.82,0-1.19,1-2.15,4-3.21l-.32-.21a5.8,5.8,0,0,1-.67-.5A2.08,2.08,0,0,1,306,119a1.41,1.41,0,0,1,.71-1.2c.36-.25.81-.45,1.26-.72a3.91,3.91,0,0,1-.9-2.43,4.58,4.58,0,0,1,4.53-4.48,3.49,3.49,0,0,1,2.07.61l.29.23.22.19.14.12.27-.07.51-.24a3.39,3.39,0,0,1,1.29-.36.92.92,0,0,1,1,1,.81.81,0,0,1-.9.79,3.81,3.81,0,0,1-.85-.14l-.37-.09-.24,0c-.12.44.07.62.07,1.85a4.42,4.42,0,0,1-4.4,4.34,3.72,3.72,0,0,1-1.37-.23Zm-.18,8.21c2.25,0,3.54-.86,3.54-1.72,0-.68-.61-1.16-1.47-1.6-.43-.22-.89-.41-1.34-.61a9.43,9.43,0,0,1-1.17-.59c-1.93.8-2.83,1.44-2.83,2.48s1.36,2,3.27,2Zm1.33-8.92c2,0,3-2.84,3-4.23,0-1.12-.56-2-1.64-2-1.92,0-3.08,2.24-3.08,4.26,0,1.21.58,2,1.69,2Z"
     transform="translate(-3.11 -2.4)"
     id="path112" />
  <path
     class="cls-7"
     d="M323,117l-.21.26c-.15.19-.33.45-.54.76-1.66,2.44-2.92,3.12-4.05,3.12-.94,0-1.73-.74-1.73-2.18,0-2.12,2.41-8.59,7.25-8.59a4.14,4.14,0,0,1,.89.1l.32.06.26,0a.23.23,0,0,0,.15-.07,1.1,1.1,0,0,0,.15-.19l.08-.11.09-.11A.38.38,0,0,1,326,110a1.58,1.58,0,0,1,.56.19c.21.11.47.3.47.58a8.65,8.65,0,0,1-.47,1.43c-.27.74-.64,1.69-1,2.66a29.7,29.7,0,0,0-1.46,4.33.49.49,0,0,0,.05.29s0,0,.15,0a.91.91,0,0,0,.47-.29,7.31,7.31,0,0,0,.64-.69c.22-.26.43-.51.61-.7a2.8,2.8,0,0,1,.25-.24.44.44,0,0,1,.25-.11c.26,0,.36.14.36.33s-2.1,3.38-3.86,3.38c-.62,0-.92-.37-.92-1.08a5.39,5.39,0,0,1,.5-1.86c.12-.29.25-.56.34-.77l.11-.26c0-.14,0-.16,0-.16Zm1.43-4.58a1.13,1.13,0,0,0-1.16-1.27c-2.34,0-4.79,4.38-4.79,7.3,0,.81.26.95.65.95,2,0,5.3-5.72,5.3-7Z"
     transform="translate(-3.11 -2.4)"
     id="path114" />
  <path
     class="cls-8"
     d="M363.19,109.64c-.2.49-5.33,8-5.33,8-.59.85-1.95,3-2.21,3.48l-1.25.07c.11-5.14.8-13.16.8-14.84s-.2-1.83-2-1.83v-.79c.77,0,2.21.06,3.62.06,1,0,1.95,0,2.91-.05v.77c-1.82.14-2.17.54-2.27,2.11l-.59,9.94c0,.28,0,.48-.05.65l.64-.87,1.71-2.43c1.33-1.9,2.93-4.21,4.09-5.81l.16-2.5c0-.62-.41-1.07-1.51-1.07v-.79c.43,0,1.65.07,3,.07s2,0,2.77-.05v.78c-1.58.05-2,.35-2.08,2.59l-.43,6.84c-.11,1.49-.32,3.38-.32,3.7.12.15,7.72-10.7,7.72-12.34,0-.55-.45-.86-1.28-.79v-.79c.48,0,1.44.06,2.34.06,1.07,0,1.89,0,2.4-.05v.78c-1.17.05-1.62.43-2.53,2a157.87,157.87,0,0,1-9.84,14.62l-1.25,0,.78-11.54Z"
     transform="translate(-3.11 -2.4)"
     id="path116" />
  <path
     class="cls-7"
     d="M376.49,117l-.21.26c-.15.19-.33.45-.54.76-1.66,2.44-2.92,3.12-4.05,3.12-.94,0-1.73-.74-1.73-2.18,0-2.12,2.42-8.59,7.26-8.59a4.14,4.14,0,0,1,.89.1l.32.06.26,0a.24.24,0,0,0,.16-.07,1.18,1.18,0,0,0,.15-.19l.08-.11.09-.11a.37.37,0,0,1,.28-.13,1.57,1.57,0,0,1,.56.19c.21.11.47.3.47.58a8.83,8.83,0,0,1-.47,1.43c-.28.74-.64,1.69-1,2.66a29.92,29.92,0,0,0-1.46,4.33c0,.18,0,.26.05.29s0,0,.14,0a.9.9,0,0,0,.48-.29,7.54,7.54,0,0,0,.64-.69c.22-.26.43-.51.61-.7a2.78,2.78,0,0,1,.25-.24.43.43,0,0,1,.25-.11c.25,0,.36.14.36.33s-2.1,3.38-3.86,3.38c-.62,0-.92-.37-.92-1.08a5.39,5.39,0,0,1,.5-1.86c.12-.29.25-.56.34-.77l.11-.26c0-.14,0-.16,0-.16Zm1.43-4.58a1.12,1.12,0,0,0-1.16-1.27c-2.34,0-4.79,4.38-4.79,7.3,0,.81.26.95.65.95,1.95,0,5.3-5.72,5.3-7Z"
     transform="translate(-3.11 -2.4)"
     id="path118" />
  <path
     class="cls-7"
     d="M382,113.31l.22-.22c.67-.75,2.42-2.68,3.67-2.68a.8.8,0,0,1,.84.82,16.42,16.42,0,0,1-1.4,4.62c-.35.85-.69,1.67-1,2.32a5.84,5.84,0,0,0-.43,1.29c0,.17,0,.2.2.2a2.46,2.46,0,0,0,1.09-.66,14.67,14.67,0,0,0,1.09-1l.07-.08.52.39-.1.1c-.25.25-.51.54-.8.85a12.4,12.4,0,0,1-.94.92,3.78,3.78,0,0,1-2.43,1c-.66,0-.87-.25-.87-.66a16,16,0,0,1,1.4-4.24c.35-.83.69-1.64,1-2.32a5.48,5.48,0,0,0,.43-1.45c0-.19-.06-.25-.22-.25a1.93,1.93,0,0,0-.92.56c-.36.31-.69.67-.86.84l-.08.08-.48-.43Zm5.09-9.58a1.19,1.19,0,1,1-1.19,1.19,1.2,1.2,0,0,1,1.19-1.19Z"
     transform="translate(-3.11 -2.4)"
     id="path120" />
  <path
     class="cls-7"
     d="M392.75,112.1Zm0,0a3.38,3.38,0,0,1,.39-.34c.27-.21.63-.49,1-.78a5.51,5.51,0,0,1,2.93-1.14,2,2,0,0,1,2.07,1.94c0,2-2.79,3.33-4.21,3.87a54,54,0,0,0,1.16,5.92c.7,2.63,1.64,4.88,2.74,4.88.36,0,.44-.18.44-.25a1.12,1.12,0,0,0-.11-.26l-.09-.13.15,0,.13,0,.17,0c.2,0,.47.16.47.58s-.51,1-1.32,1c-2.27,0-4.76-4.66-5.58-10.86l-1,.34-1,.29-.75,2.28a14.17,14.17,0,0,1-.49,1.36.49.49,0,0,1-.49.28h-1c-.4,0-.52-.18-.52-.39s.79-2.63,2.79-8.32c1-2.94,1.68-4.75,2.07-5.89a8.33,8.33,0,0,0,.52-1.79c0-.12,0-.21-.28-.28a5.5,5.5,0,0,0-1.36-.11h-.12v-.78h3.83c.2,0,.39,0,.39.31a6.14,6.14,0,0,1-.44,1.43l-2.19,5.93-.25.7-.09.27c-.06.12,0,.13,0,.13v0ZM391.5,116c2-.56,5.88-2.2,5.88-4,0-.46-.27-.81-.89-.81-1,0-3.52,1.77-4.17,2.4L391.5,116Z"
     transform="translate(-3.11 -2.4)"
     id="path122" />
  <path
     class="cls-7"
     d="M405.88,117l-.21.26c-.15.19-.33.45-.54.76-1.66,2.44-2.92,3.12-4.05,3.12-.94,0-1.73-.74-1.73-2.18,0-2.12,2.41-8.59,7.25-8.59a4.14,4.14,0,0,1,.89.1l.31.06.26,0a.23.23,0,0,0,.15-.07,1.18,1.18,0,0,0,.15-.19l.08-.11.09-.11a.37.37,0,0,1,.28-.13,1.56,1.56,0,0,1,.56.19c.21.11.47.3.47.58a8.83,8.83,0,0,1-.47,1.43c-.27.74-.64,1.69-1,2.66a29.83,29.83,0,0,0-1.46,4.33.49.49,0,0,0,.05.29s0,0,.14,0a.9.9,0,0,0,.48-.29,7.31,7.31,0,0,0,.64-.69c.22-.26.43-.51.6-.7a2.78,2.78,0,0,1,.25-.24.44.44,0,0,1,.25-.11c.26,0,.36.14.36.33s-2.1,3.38-3.86,3.38c-.62,0-.92-.37-.92-1.08a5.4,5.4,0,0,1,.51-1.86c.12-.29.25-.56.34-.77l.11-.26c0-.14,0-.16,0-.16Zm1.43-4.58a1.13,1.13,0,0,0-1.16-1.27c-2.34,0-4.79,4.38-4.79,7.3,0,.81.26.95.65.95,1.95,0,5.3-5.72,5.3-7Z"
     transform="translate(-3.11 -2.4)"
     id="path124" />
  <path
     class="cls-8"
     d="M417,110.41h1c.34,0,.44.29.44.76s-.23.77-.5.77h-1.26c-.22,0-.35.08-.47.43l-2.11,5.56-.22.61a1.81,1.81,0,0,0-.12.47c0,.1.06.23.36.23a5,5,0,0,0,1.6-1l.89-.7.32-.24.12-.07.12,0a.33.33,0,0,1,.34.34c0,.26-.51.74-1.86,1.93a6.31,6.31,0,0,1-3.31,1.71.86.86,0,0,1-1-.82,9.1,9.1,0,0,1,.57-2l2.22-5.88.11-.29a.67.67,0,0,0,0-.2s0-.09-.28-.09h-1.1c-.2,0-.36-.06-.36-.26a.37.37,0,0,1,0-.17,1.48,1.48,0,0,0,.07-.14l.32-1h1.74c.14,0,.23,0,.32-.22l.8-1.76c0-.1.11-.15.24-.18a4.39,4.39,0,0,1,.64-.11l.44-.07.32,0a.29.29,0,0,1,.28.28.46.46,0,0,1,0,.12l-.05.15-.15.39-.51,1.29,0,.12v0Z"
     transform="translate(-3.11 -2.4)"
     id="path126" />
  <path
     class="cls-7"
     d="M429.46,114.32c0,3.12-2.66,6.85-6.59,6.85a3.78,3.78,0,0,1-3.75-4.13c0-3.12,2.66-6.86,6.59-6.86a3.78,3.78,0,0,1,3.75,4.13Zm-8.33,3.61c0,1.7.72,2.47,1.75,2.47,1.61,0,4.58-3.64,4.58-7,0-1.7-.72-2.47-1.75-2.47-1.61,0-4.58,3.64-4.58,7Z"
     transform="translate(-3.11 -2.4)"
     id="path128" />
  <path
     class="cls-8"
     d="M137.89,107.35l.07-.16c.27-.61.64-1.6,1-2.44a8.2,8.2,0,0,1,.58-1.09c.18-.26.39-.5.62-.5a1,1,0,0,1,.54.16c.13.08.26.19.43.3a3.57,3.57,0,0,0,2,.42h7.35a4.58,4.58,0,0,0,2.92-.59,1,1,0,0,1,.61-.26c.26,0,.39.19.39.5s-.27,2.05-.64,4c-.06.49-.19.56-.57.56s-.55-.14-.55-.6c0-2-.8-2.58-3-2.6-1,0-1.33.21-1.72,1.75l-2.43,9.27a18.64,18.64,0,0,0-.72,3.44c0,.47.62.68,2.23.73V121c-1.73,0-2.66-.05-4.1-.05-1,0-1.92,0-3.5.05v-.77c2.12-.17,2.53-.31,3-2l2.88-10.69a9.39,9.39,0,0,0,.34-1.89c0-.44,0-.6-1.91-.6s-2.95.25-4.8,2.36l-1-.06Z"
     transform="translate(-3.11 -2.4)"
     id="path130" />
  <path
     class="cls-7"
     d="M153.83,119.65a4,4,0,0,0,2-.77c.3-.2.56-.39.75-.54l.25-.18c.11-.07.16-.09.2-.09.21,0,.31.12.31.34a6.49,6.49,0,0,1-4.58,2.77,2.77,2.77,0,0,1-2.87-3c0-3.88,4.38-8,7.39-8A2,2,0,0,1,159.5,112c0,2.17-3.5,2.88-5.09,2.88-.55,0-.82,0-1.14,0a5.74,5.74,0,0,0-1.09,3.13,1.55,1.55,0,0,0,1.64,1.69ZM157,111c-1.22,0-2.7,2.17-3.18,3,2.39-.07,4-.84,4-2.12A.84.84,0,0,0,157,111Z"
     transform="translate(-3.11 -2.4)"
     id="path132" />
  <polygon
     class="cls-8"
     points="259.27 105.14 265.13 105.14 265.13 106.09 259.27 106.09 259.27 105.14 259.27 105.14"
     id="polygon134" />
  <path
     class="cls-7"
     d="M233.86,86.11v-.7c0-.41-.23-.59-.94-.59a8.06,8.06,0,0,1-2.93-.64c-.76-.35-1.11-.88-1.82-2.35l-.76-1.58L213.53,47.79c-.53-1.17-.64-1.23-1.41-1.23h-.7c-.59,0-.76,0-.88.18s-.35.59-.59,1.11L196.36,80c-.94,2.28-1.29,3-1.93,3.63a2.25,2.25,0,0,1-.88.65,8.72,8.72,0,0,1-2.46.59c-.53.06-.64.24-.64.94s.12.88.76.88h1.17c2.34,0,4-.12,5-.12s2.64.12,5.27.12h1.17c.76,0,.94-.18.94-.94s-.18-1-1.23-1c-2.46-.06-3.69-.64-3.69-1.82a11.68,11.68,0,0,1,.76-2.87l2.75-7.38h14.24l2.93,7.56.53,1.35a3.1,3.1,0,0,1,.29.88,3.71,3.71,0,0,1,.18.88c0,.7-.82,1.11-2.52,1.29-.59.06-1,.06-1.23.12a.66.66,0,0,0-.47.18.57.57,0,0,0-.23.53v.59c0,.53.12.64.65.64h.7l1.47-.06h5.51c3.69,0,5.74.06,6.21.06h1.23c.76,0,1-.12,1-.59Zm-17.4-16.35h-11.9l5.8-15.18,6.09,15.18Z"
     transform="translate(-3.11 -2.4)"
     id="path136" />
  <path
     class="cls-7"
     d="M305.22,85.76c0-.64-.12-.82-.59-.88l-.53-.12a8.74,8.74,0,0,1-2.93-.82c-1.17-.65-1.93-1.41-4.34-4.1L283.48,64.9l9.73-9.55c2.87-2.81,4.75-4.4,6-5a10.33,10.33,0,0,1,3.34-.88c.76-.12.94-.23.94-.94v-.41c0-.41-.18-.59-.7-.59h-.76c-.29,0-.82.06-1.52.06-1.64.06-2.93.06-3.87.06l-5-.06h-2a3.33,3.33,0,0,1-.82-.06c-.53,0-.7.23-.7.88,0,.82.18,1,.94,1.05,1.93.06,2.58.41,2.58,1.17s-.76,1.88-3.57,4.81L277.32,66.6,289,80.31c1.41,1.64,1.93,2.52,1.93,3,0,.76-.88,1.29-2.7,1.4-.88.06-1.05.24-1.05.94,0,.88.12,1,.88,1h1.06c.47,0,1.17,0,2.17-.06,2.23-.06,4-.06,5.33-.06s2.87,0,4.92.06l1.82.06h.82c.88,0,1.05-.12,1.05-.94Zm-22.8.12V85.7c0-.76-.18-.88-1.35-.88-1.93,0-3.75-.59-4-1.4a14.88,14.88,0,0,1-.35-4V54.88c0-4.34.29-4.92,2.7-5.27h.06c.76-.12,1.17-.18,1.29-.18,1.17-.06,1.29-.18,1.29-1V48.2c0-.53-.12-.76-.7-.7l-.82.06h-1.82c-1.87,0-3.11.12-3.75.12h-2.58c-.76,0-2.05-.12-3.81-.12h-2.23l-.35-.06c-.64,0-.76.18-.76.76v.17c0,.82.18.94,1.23,1a13.58,13.58,0,0,1,1.35.18h.06c2.4.35,2.69.94,2.69,5.27v24.5c0,3-.24,4.34-.94,4.69a6.76,6.76,0,0,1-1.76.59h-.06a5.74,5.74,0,0,1-1.35.18c-1.11,0-1.23.12-1.23,1v.24c0,.53.18.64.7.64h.82c.47,0,1.11-.06,1.82-.06,1.87-.06,3.11-.06,3.75-.06h2.58c.94,0,2.23,0,3.81.06,1,.06,1.7.06,2.17.06h.82c.64,0,.76-.12.76-.82Z"
     transform="translate(-3.11 -2.4)"
     id="path138" />
  <path
     class="cls-7"
     d="M352.72,86.11v-.7c0-.41-.23-.59-.94-.59a8.06,8.06,0,0,1-2.93-.64c-.76-.35-1.11-.88-1.82-2.35l-.76-1.58L332.39,47.79c-.53-1.17-.64-1.23-1.41-1.23h-.7c-.59,0-.76,0-.88.18s-.35.59-.59,1.11L315.22,80c-.94,2.28-1.29,3-1.93,3.63a2.23,2.23,0,0,1-.88.65,8.7,8.7,0,0,1-2.46.59c-.53.06-.64.24-.64.94s.12.88.76.88h1.17c2.34,0,4-.12,5-.12s2.64.12,5.27.12h1.17c.76,0,.94-.18.94-.94s-.18-1-1.23-1c-2.46-.06-3.69-.64-3.69-1.82a11.67,11.67,0,0,1,.76-2.87l2.75-7.38h14.24l2.93,7.56.53,1.35a3,3,0,0,1,.29.88,3.66,3.66,0,0,1,.18.88c0,.7-.82,1.11-2.52,1.29-.59.06-1,.06-1.23.12a.66.66,0,0,0-.47.18.57.57,0,0,0-.24.53v.59c0,.53.12.64.65.64h.7l1.46-.06h5.51c3.69,0,5.74.06,6.21.06h1.23c.76,0,1-.12,1-.59Zm-17.4-16.35h-11.9l5.8-15.18,6.1,15.18Z"
     transform="translate(-3.11 -2.4)"
     id="path140" />
  <path
     class="cls-7"
     d="M430.86,65.37c0-11-8.09-19-19.28-19-12.42,0-21.51,9.2-21.51,21.8,0,11.54,8.09,19.63,19.57,19.63,12.13,0,20.63-8.68,21.16-21.51a5.11,5.11,0,0,0,.06-.94Zm-6.39,2.69c0,9.73-5.62,16.53-13.77,16.53s-14.36-8-14.36-18.63c0-9.9,5.45-16.47,13.71-16.47s14.42,8,14.42,18.58Z"
     transform="translate(-3.11 -2.4)"
     id="path142" />
  <path
     class="cls-8"
     d="M256.78,85.88v-.53c-.06-.29-.23-.41-.76-.47l-1.41-.18c-2.75-.35-3.34-.88-3.4-3.4l-.06-1.93V54.88c0-.12.06-.76.12-2a7.18,7.18,0,0,1,.06-1.17,1.92,1.92,0,0,1,.76-1.52,9.56,9.56,0,0,1,3.69-.88c.65,0,.7-.18.7-.88V48.2c0-.53-.12-.76-.7-.7l-1,.06-2.58.06h-3.93l-4.92-.06h-2.64a1.14,1.14,0,0,0-.41-.06c-.53,0-.64.12-.64.53l-.06.24v.17c0,.82.12.88.64.94a9.84,9.84,0,0,1,3.75.76c.76.59.94,1.41.94,4.75v24.5c0,3-.24,4.22-.94,4.69s-1.41.65-3.69.76c-.58.06-.7.24-.7,1v.24c0,.53.18.64.7.64h.82c.59,0,1.23-.06,1.82-.06,1.93-.06,3.16-.06,3.75-.06h2.7c.82,0,2.05,0,3.81.06.88.06,1.52.06,1.93.06h.94c.59,0,.7-.12.7-.82Z"
     transform="translate(-3.11 -2.4)"
     id="path144" />
  <path
     class="cls-8"
     d="M198.09,48.37c0-.64-.18-.88-.76-.88-.12,0-.29.06-.59.06H195l-3.81.06h-3.58c-1.11,0-1.93-.06-2.29-.06s-.64-.06-.88-.06c-.53,0-.76.29-.76,1,0,.41.12.7.35.82s.29.06,1.41.18c2.34.18,3.11.7,3.11,1.93a8,8,0,0,1-.47,2.52l-.53,1.58-7.38,22.85L172.66,55.7,172,53.88a7.15,7.15,0,0,1-.59-2.52c0-1.23.82-1.7,3.4-1.82l1.11-.06c.64-.06.82-.23.82-.94,0-.88-.23-1.06-1.35-1.06-.29,0-1.17.06-3,.12H164c-1.76,0-2.28,0-3.16-.06-.18,0-.29-.06-.41-.06-.59,0-.76.23-.76.94,0,.94.12,1,.82,1.06,2.23.23,2.87.47,3.52,1.17a9.82,9.82,0,0,1,1.47,3.22l-8.09,24.38-8.15-23.32-.41-1.17a6.84,6.84,0,0,1-.59-2.29c0-1.29.76-1.7,3.75-1.93l.76-.06c.64-.06.76-.18.76-.94s-.18-1.11-.88-1.06l-.94.06-2.4.06h-9.14l-2.46-.06c-.29,0-.59-.06-.7-.06-.76,0-.88.18-.88,1.11,0,.47,0,.64.18.76a3.11,3.11,0,0,0,.94.18c2.11.23,2.87.53,3.46,1.23a7.57,7.57,0,0,1,1.11,2.11c.47,1.11.82,1.93,1,2.46l11.31,30.47c.59,1.64.7,1.82,1.23,1.82h1.23c.53,0,.7-.23,1-1.05L167,58.39,176.88,86c.47,1.35.76,1.64,1.41,1.64h1.05c.53,0,.64-.12,1-.94l.23-.76L191.7,55.46l1.05-2.75c.53-1.35.64-1.64,1.17-2.11a4.48,4.48,0,0,1,2.75-1.11c1.11-.18,1.17-.18,1.29-.35a2.32,2.32,0,0,0,.12-.76Z"
     transform="translate(-3.11 -2.4)"
     id="path146" />
  <path
     class="cls-8"
     d="M387.18,48.2c.06-.53-.23-.7-.76-.7h-1.29l-1.87.06c-.41,0-1.88.06-4.28.06H369.6l-8.21-.06-3.63-.06h-3.69c-.7,0-.82,0-.94.29a5.15,5.15,0,0,0-.29,1.82l-.53,5.27c0,.35-.06.76-.06,1.11V56c0,.35.53.59,1.41.59.29,0,.41-.12.47-.41a6.66,6.66,0,0,1,3.34-5c1.41-.64,3.11-.88,8.44-.88h.82V79.31c0,3.28-.18,4.16-1.06,4.63a10.51,10.51,0,0,1-4,.88c-1.11.06-1.29.18-1.29.76v.35c0,.59.18.76.64.76h.7c.59,0,1.52,0,2.87-.06,2.17-.06,4-.06,5.33-.06l6.09.06c1.11,0,1.76.06,2,.06h.82c.88,0,1-.06,1-.76v-.59c0-.41-.23-.47-1.64-.59a12.34,12.34,0,0,1-3.93-.64c-1.11-.53-1.35-1.35-1.35-4.81V50.36h2.46c1.82,0,3.87.06,5,.18a7,7,0,0,1,2.23.64c1.17.64,1.87,2,2.17,4.4.12.88.23,1,1.06,1s.94-.12,1-.7l.06-.94V53.59l.18-4V49l.06-.76Z"
     transform="translate(-3.11 -2.4)"
     id="path148" />
  <rect
     class="cls-9"
     x="121.08"
     y="104.9"
     width="3.09"
     height="0.19"
     id="rect150" />
  <metadata
     id="metadata577">
    <rdf:RDF>
      <cc:Work
         rdf:about="">
        <dc:title>SVG Full Colour Horizontal RGB for red background</dc:title>
      </cc:Work>
    </rdf:RDF>
  </metadata>
</svg>
