<?xml version="1.0" encoding="UTF-8" standalone="no"?>
<!-- Generator: Adobe Illustrator 19.0.0, SVG Export Plug-In . SVG Version: 6.00 Build 0)  -->

<svg
   version="1.1"
   id="Capa_1"
   x="0px"
   y="0px"
   viewBox="0 0 60 60"
   style="enable-background:new 0 0 60 60;"
   xml:space="preserve"
   sodipodi:docname="navigation.svg"
   inkscape:version="1.1.1 (3bf5ae0d25, 2021-09-20)"
   xmlns:inkscape="http://www.inkscape.org/namespaces/inkscape"
   xmlns:sodipodi="http://sodipodi.sourceforge.net/DTD/sodipodi-0.dtd"
   xmlns="http://www.w3.org/2000/svg"
   xmlns:svg="http://www.w3.org/2000/svg"><defs
   id="defs41" /><sodipodi:namedview
   id="namedview39"
   pagecolor="#ffffff"
   bordercolor="#666666"
   borderopacity="1.0"
   inkscape:pageshadow="2"
   inkscape:pageopacity="0.0"
   inkscape:pagecheckerboard="0"
   showgrid="false"
   inkscape:zoom="13.866667"
   inkscape:cx="28.954327"
   inkscape:cy="29.963942"
   inkscape:window-width="1920"
   inkscape:window-height="1017"
   inkscape:window-x="-8"
   inkscape:window-y="-8"
   inkscape:window-maximized="1"
   inkscape:current-layer="Capa_1" />
<g
   id="g6">
	<path
   d="M44.394,13.091L8.633,29.503c-0.399,0.184-0.632,0.605-0.574,1.041s0.393,0.782,0.826,0.854l15.833,2.653l1.809,14.95   c0.054,0.438,0.389,0.791,0.824,0.865c0.057,0.01,0.113,0.015,0.169,0.015c0.375,0,0.726-0.211,0.896-0.556l17.291-34.882   c0.188-0.38,0.117-0.837-0.178-1.141S44.776,12.914,44.394,13.091z M28.11,45.438l-1.496-12.369   c-0.054-0.44-0.391-0.793-0.828-0.866l-13.362-2.239L42.66,16.087L28.11,45.438z"
   id="path2" />
	<path
   d="M30,0C13.458,0,0,13.458,0,30s13.458,30,30,30s30-13.458,30-30S46.542,0,30,0z M30,58C14.561,58,2,45.439,2,30   S14.561,2,30,2s28,12.561,28,28S45.439,58,30,58z"
   id="path4" />
</g>
<g
   id="g8">
</g>
<g
   id="g10">
</g>
<g
   id="g12">
</g>
<g
   id="g14">
</g>
<g
   id="g16">
</g>
<g
   id="g18">
</g>
<g
   id="g20">
</g>
<g
   id="g22">
</g>
<g
   id="g24">
</g>
<g
   id="g26">
</g>
<g
   id="g28">
</g>
<g
   id="g30">
</g>
<g
   id="g32">
</g>
<g
   id="g34">
</g>
<g
   id="g36">
</g>
<path
   style="fill:#000000;fill-opacity:1;stroke:#000000;stroke-width:1;stroke-opacity:1;stroke-miterlimit:4;stroke-dasharray:none"
   d="m 28.095282,44.950773 c -0.02422,-0.151411 -0.366202,-2.944778 -0.759959,-6.207483 -0.777679,-6.44392 -0.735064,-6.217607 -1.217211,-6.464167 -0.105947,-0.05418 -3.184649,-0.59726 -6.841559,-1.206844 -3.656911,-0.609585 -6.626261,-1.129816 -6.598558,-1.156068 0.07754,-0.07348 29.807221,-13.705535 29.830359,-13.678223 0.0192,0.02266 -14.280543,28.899586 -14.340794,28.959837 -0.01553,0.01553 -0.04806,-0.09564 -0.07228,-0.247052 z"
   id="path1024" /></svg>
