<?xml version="1.0" encoding="UTF-8" standalone="no"?>
<svg
   id="svg2"
   viewBox="0 0 135 135"
   version="1.0"
   sodipodi:docname="Hey-You-Logo-unired-screen.svg"
   inkscape:version="1.1.1 (3bf5ae0d25, 2021-09-20)"
   inkscape:export-filename="C:\Users\davidb\Downloads\HeyYou-Artwork\Selected\Hey-You-Logo-red-screen.png"
   inkscape:export-xdpi="1365.3334"
   inkscape:export-ydpi="1365.3334"
   xmlns:inkscape="http://www.inkscape.org/namespaces/inkscape"
   xmlns:sodipodi="http://sodipodi.sourceforge.net/DTD/sodipodi-0.dtd"
   xmlns="http://www.w3.org/2000/svg"
   xmlns:svg="http://www.w3.org/2000/svg"
   xmlns:rdf="http://www.w3.org/1999/02/22-rdf-syntax-ns#"
   xmlns:cc="http://creativecommons.org/ns#"
   xmlns:dc="http://purl.org/dc/elements/1.1/">
  <defs
     id="defs9" />
  <sodipodi:namedview
     id="namedview7"
     pagecolor="#ffffff"
     bordercolor="#666666"
     borderopacity="1.0"
     inkscape:pageshadow="2"
     inkscape:pageopacity="0.0"
     inkscape:pagecheckerboard="0"
     showgrid="false"
     inkscape:zoom="2.1789365"
     inkscape:cx="34.649932"
     inkscape:cy="27.53637"
     inkscape:window-width="1612"
     inkscape:window-height="1040"
     inkscape:window-x="33"
     inkscape:window-y="0"
     inkscape:window-maximized="0"
     inkscape:current-layer="svg2" />
  <g
     id="layer1"
     transform="translate(-7.0988 2.0414)">
    <path
       id="path2431"
       d="m-0.40625 0c-0.35725 37.598-0.11976 66.427 0 106.59l44.906 0.79c1.605 4.09 5.103 14.24 4.094 18-0.6 0.55-2.873 0.89-8 1.18-15.32 0.89-22.973 3.08-20.469 5.85 0.847 0.93 7.295 2.22 13.531 2.71 2.633 0.21 19.223 0.37 36.875 0.35 32.609-0.04 37.609-0.29 42.309-2.09 1.96-0.75 2.51-2.2 1.19-3.16-2.25-1.64-14.983-3.75-22.624-3.75-5.701 0-7.854-0.92-7.5-3.25 0.57-3.75 3.42-15.13 3.938-15.72l47.436-0.91-0.5-106.59h-135.19zm7.4374 6.2188h121.25v91.25h-121.25l0.0012-91.25zm59.594 94.191c1.575 0 2.844 1.15 2.844 2.59s-1.269 2.62-2.844 2.62-2.844-1.18-2.844-2.62 1.269-2.59 2.844-2.59zm51.345 1.97c0.65 0 1.19 0.46 1.19 1.06s-0.54 1.09-1.19 1.09-1.19-0.49-1.19-1.09 0.54-1.06 1.19-1.06zm3.06 0c0.65 0 1.19 0.46 1.19 1.06s-0.54 1.09-1.19 1.09-1.19-0.49-1.19-1.09 0.54-1.06 1.19-1.06zm3.09 0c0.66 0 1.16 0.46 1.16 1.06s-0.5 1.09-1.16 1.09c-0.65 0-1.18-0.49-1.18-1.09s0.53-1.06 1.18-1.06zm3.07 0c0.65 0 1.19 0.46 1.19 1.06s-0.54 1.09-1.19 1.09c-0.66 0-1.19-0.49-1.19-1.09s0.53-1.06 1.19-1.06zm-68.69 4.96l15.531 0.07c0 1.65-3.049 14.52-3.656 14.87-1.143 2.83-6.379 4.46-7.5 0.13-0.287-1.11-4.375-12.82-4.375-15.07z"
       transform="translate(7.0988 -2.0414)" />
  </g>
  <metadata
     id="metadata4">
    <rdf:RDF>
      <cc:Work>
        <dc:format>image/svg+xml</dc:format>
        <dc:type
           rdf:resource="http://purl.org/dc/dcmitype/StillImage" />
        <cc:license
           rdf:resource="http://creativecommons.org/publicdomain/zero/1.0/" />
        <dc:publisher>
          <cc:Agent
             rdf:about="http://openclipart.org/">
            <dc:title>Openclipart</dc:title>
          </cc:Agent>
        </dc:publisher>
        <dc:date>2013-10-19T20:47:27</dc:date>
        <dc:description>computer screen pictogram</dc:description>
        <dc:source>https://openclipart.org/detail/185201/computer-monitor-by-ousia-185201</dc:source>
        <dc:creator>
          <cc:Agent>
            <dc:title>ousia</dc:title>
          </cc:Agent>
        </dc:creator>
        <dc:subject>
          <rdf:Bag>
            <rdf:li>computer monitor</rdf:li>
            <rdf:li>screen</rdf:li>
          </rdf:Bag>
        </dc:subject>
      </cc:Work>
      <cc:License
         rdf:about="http://creativecommons.org/publicdomain/zero/1.0/">
        <cc:permits
           rdf:resource="http://creativecommons.org/ns#Reproduction" />
        <cc:permits
           rdf:resource="http://creativecommons.org/ns#Distribution" />
        <cc:permits
           rdf:resource="http://creativecommons.org/ns#DerivativeWorks" />
      </cc:License>
    </rdf:RDF>
  </metadata>
  <rect
     style="fill:#e41915;fill-rule:evenodd;stroke-width:1.18592;fill-opacity:1"
     id="rect133"
     width="121.25"
     height="91.249992"
     x="7.0311499"
     y="6.2188001" />
  <g
     id="g30"
     transform="matrix(0.03788618,0,0,0.03788618,33.808274,19.939155)">
    <path
       opacity="0.6"
       fill="#0240ed"
       d="m 321.869,838.199 c -19.751,-87.912 -7.309,-163.2 49.546,-214.37 49.353,-44.419 106.965,-46.363 154.523,-5.887 57.31,48.776 69.658,121.656 63.771,186.409 -77.456,-1.641 -168.982,12.096 -267.84,33.848 z"
       id="path2" />
    <path
       opacity="0.6"
       fill="#0240e9"
       d="m 1098.164,792.578 c -1.934,-71.557 20.183,-132.757 73.583,-172.183 39.367,-29.065 94.856,-28.806 140.175,12.877 46.724,42.975 62.717,97.692 62.545,158.57 -92.338,-12.761 -184.447,-13.011 -276.303,0.736 z"
       id="path4" />
    <path
       d="M 70.217,437.91 C 51.586,457.884 21.14,432.538 34.529,402.222 108.589,234.542 229.891,103.109 346.151,66.318 423.859,41.727 489.7,65.982 532.315,123.712 c 15.452,19.131 -16.188,47.829 -31.64,47.093 -57.395,-2.733 -145.303,6.497 -208.974,47.093 C 227.086,259.096 151.893,350.347 70.217,437.91 Z"
       id="path6" />
    <path
       d="m 131.29,476.173 c -13.954,12.655 -24.921,3.083 -14.716,-11.773 64.017,-93.204 147.087,-134.249 259.746,-125.09 92.506,7.52 156.769,45.717 181.013,116.26 4.738,13.785 -2.248,22.594 -13.981,13.245 C 481.788,419.76 419.095,377.837 351.302,373.894 280.289,369.762 212.967,402.1 131.29,476.173 Z"
       id="path8" />
    <path
       d="m 1188.18,146.033 c -35.36,0.975 -48.281,-44.549 -18.15,-69.658 76.526,-63.772 173.099,-58.989 255.576,0.981 117.85,85.689 224.672,237.917 244.784,297.764 11.109,33.055 -19.622,51.998 -30.905,39.735 -17.146,-18.637 -161.228,-170.087 -252.633,-235.464 -47.495,-33.971 -127.542,-35.32 -198.672,-33.358 z"
       id="path10" />
    <path
       d="m 1133.729,489.418 c -12.295,10.16 -18.151,1.963 -11.773,-10.792 29.924,-59.847 134.175,-142.738 234.483,-141.769 101.544,0.981 228.596,88.79 238.407,174.636 1.662,14.54 -13.628,19.123 -21.094,7.849 -48.074,-72.601 -121.74,-129.153 -210.446,-144.222 -71.59,-12.162 -144.735,44.187 -229.577,114.298 z"
       id="path12" />
    <path
       d="m 98.178,938.271 c -43.367,11.345 -46.881,-10.007 -15.207,-25.018 112.826,-53.47 272.775,-89.676 441.495,-112.336 50,-4.938 88.3,1.265 113.808,18.641 17.572,11.97 18.289,31.527 -6.868,28.452 -44.149,-5.396 -96.864,-9.688 -153.542,-0.491 -126.021,20.411 -263.426,60.338 -379.686,90.752 z"
       id="path14" />
    <path
       d="m 525.447,782.767 c 0,-59.874 -33.493,-108.411 -74.809,-108.411 -41.316,0 -74.809,48.537 -74.809,108.411 0,15.311 2.202,29.871 6.153,43.078 49.929,-9.477 97.475,-16.349 141.681,-19.57 1.156,-7.573 1.784,-15.432 1.784,-23.508 z"
       id="path16" />
    <path
       d="m 1088.599,792.946 c -59.248,12.847 -64.024,31.451 1.84,40.47 70.734,9.686 154.222,-0.839 242.822,5.151 101.507,6.863 194.976,34.197 283.293,51.508 32.171,6.306 40.982,-15.243 10.669,-32.376 -67.696,-38.263 -160.223,-58.413 -253.124,-68.8 -100.034,-11.184 -194.934,-15.592 -285.5,4.047 z"
       id="path18" />
    <path
       d="m 1307.746,784.835 c 0.795,-4.948 1.232,-10.04 1.232,-15.252 0,-46.226 -32.697,-83.7 -73.031,-83.7 -40.334,0 -73.031,37.474 -73.031,83.7 0,5.309 0.45,10.495 1.275,15.529 47.787,-3.703 95.639,-3.729 143.555,-0.277 z"
       id="path20" />
    <ellipse
       fill="#ffffff"
       cx="413.84698"
       cy="676.31799"
       rx="45.375999"
       ry="61.319"
       id="ellipse22" />
    <ellipse
       fill="#ffffff"
       cx="1199.34"
       cy="687.72302"
       rx="44.148998"
       ry="60.706001"
       id="ellipse24" />
    <path
       d="m 448.431,1158.528 c -9.608,12.61 -23.027,21.731 -41.206,26.49 1,-50.195 26.925,-75.79 75.054,-79.469 -1.785,9.684 -7.445,20.43 -15.698,31.886 100.543,42.543 251.011,65.735 470.928,81.922 99.067,7.292 207.736,-4.774 328.668,-49.055 -14.798,-11.924 -27.784,-27.105 -39.734,-44.15 65.385,14.912 115.454,43.54 144.222,91.242 -30.405,-1.382 -58.385,-11.972 -83.393,-33.848 -20.113,251.162 -259.01,502.323 -503.795,419.911 76.338,2.26 148.565,-9.179 215.352,-38.754 -115.942,37.297 -223.265,38.651 -319.348,-6.868 45.227,27.486 94.241,51.855 147.656,72.601 C 545.56,1599.042 467.072,1376.823 448.431,1158.528 Z"
       id="path26" />
    <path
       fill="#ef3536"
       d="m 895.812,1500.442 c -28.997,-35.526 -30.045,-63.668 2.575,-71.007 58.866,-13.245 115.517,2.013 156.731,39.735 19.891,18.442 18.591,33.609 -0.736,45.989 -68.873,36.607 -158.284,59.285 -268.576,48.564 -67.671,-6.578 -122.753,-26.594 -158.57,-54.451 -16.048,-12.482 -23.459,-32.676 0.368,-45.621 93.45,-50.773 194.626,-22.242 268.208,36.791 z"
       id="path28" />
  </g>
</svg>
