<?xml version="1.0"?>
<svg xmlns="http://www.w3.org/2000/svg" xmlns:xlink="http://www.w3.org/1999/xlink" xmlns:svgjs="http://svgjs.com/svgjs" version="1.1" width="2000" height="1500" preserveAspectRatio="none" viewBox="0 0 2000 1500">
  <g mask='url("#SvgjsMask1017")' fill="none">
  <!--
    <rect width="2000" height="1500" x="0" y="0" fill="rgba(255, 255, 255, 1.0)"/>
    -->
    
    <path d="M675 0C712.57 0.51 712.53 5.14 750 5.14C776.82 5.14 776.68 0.37 803.57 0C964.18 -2.2 964.28 0 1125 0C1312.5 0 1312.5 0 1500 0C1640.03 0 1708.19 -79.61 1780.06 0C1877.46 107.89 1797.37 192.77 1838.54 375C1844.84 402.9 1851.84 420.26 1875 420.26C1915.33 420.26 1955.43 419.66 1965.52 375C2002.9 209.53 1888.51 107.34 1969.94 0C2030.75 -80.16 2190.13 -80.16 2250 0C2330.16 107.34 2250 187.5 2250 375C2250 562.5 2250 562.5 2250 750C2250 937.5 2250 937.5 2250 1125C2250 1271.64 2316.65 1320.26 2250 1418.27C2189.15 1507.76 2124.48 1471.78 1995 1500C1936.98 1512.65 1935 1500 1875 1500C1687.5 1500 1687.5 1500 1500 1500C1312.5 1500 1312.5 1500 1125 1500C937.5 1500 937.5 1500 750 1500C562.5 1500 562.5 1500 375 1500C187.5 1500 93.75 1593.75 0 1500C-93.75 1406.25 -92.49 1195.72 0 1125C95.01 1052.34 199.48 1213.24 375 1213.24C433.27 1213.24 462.01 1183.54 467.59 1125C484.07 951.92 460.28 924.12 419.12 750C413.99 728.28 396.11 733.33 375 733.33C361.55 733.33 360.38 739.16 350 750C172.88 935 101.09 1125 0 1125C-73.91 1125 0 937.5 0 750C0 562.5 0 562.5 0 375C0 187.5 -93.75 93.75 0 0C93.75 -93.75 187.5 0 375 0C525 0 525.07 -2.06 675 0" stroke="rgba(0, 0, 0, 0.08)" stroke-width="2"/>
    <path d="M1500 668.67C1433.14 668.67 1359.38 710.04 1359.38 750C1359.38 789.5 1432.92 827.59 1500 827.59C1552.15 827.59 1597.83 789.36 1597.83 750C1597.83 709.9 1552.36 668.67 1500 668.67" stroke="rgba(0, 0, 0, 0.08)" stroke-width="2"/>
    <path d="M192.57 375C192.57 291.7 264.21 249.9 375 201.92C542.93 129.18 561.19 157.22 750 133.56C936.19 110.23 950.38 153.73 1125 107.95C1205.1 86.95 1181.15 22.53 1259.43 0C1368.65 -31.44 1379.72 0 1500 0C1580.7 0 1630.22 -56.11 1661.39 0C1734.38 131.39 1754.98 214.36 1708.33 375C1674.29 492.22 1613.05 477.83 1500 555.72C1340.92 665.33 1164.06 654.55 1164.06 750C1164.06 844.36 1339.76 935.34 1500 935.34C1624.58 935.34 1625.71 851.78 1733.7 750C1813.21 675.06 1783.37 635.97 1875 581.9C2041.52 483.63 2143.67 397.65 2250 445.31C2331.17 481.7 2250 597.65 2250 750C2250 937.5 2250 937.5 2250 1125C2250 1211.54 2307.85 1256.09 2250 1298.08C2120.35 1392.18 2054.15 1328.99 1875 1397.18C1788.9 1429.95 1805.62 1476.39 1719.51 1500C1618.12 1527.8 1609.76 1500 1500 1500C1312.5 1500 1312.5 1500 1125 1500C937.5 1500 937.5 1500 750 1500C562.5 1500 562.5 1500 375 1500C196.43 1500 17.86 1541.71 17.86 1500C17.86 1453.48 210.85 1432.39 375 1323.53C493.58 1244.89 497.04 1238.22 583.33 1125C684.54 992.22 632.9 936.91 750 831.52C841.23 749.41 1000 787.14 1000 750C1000 713.49 871.32 727.88 750 684.21C558.82 615.38 551.43 622.87 375 525C272.72 468.26 192.57 453.24 192.57 375" stroke="rgba(0, 0, 0, 0.08)" stroke-width="2"/>
    <path d="M2250 344.59C2207.65 344.59 2088.61 120.98 2088.61 0C2088.61 -51.31 2224.26 -54.96 2250 0C2304.96 117.34 2288.35 344.59 2250 344.59" stroke="rgba(0, 0, 0, 0.08)" stroke-width="2"/>
    <path d="M0 698.86C10.38 698.86 37.5 725.54 37.5 750C37.5 771.2 10.83 790.18 0 790.18C-7.92 790.18 0 770.09 0 750C0 724.43 -8.37 698.86 0 698.86" stroke="rgba(0, 0, 0, 0.08)" stroke-width="2"/>
    <path d="M465.52 375C465.52 311.91 601.85 290.07 750 261.99C931.59 227.57 958.76 313.46 1125 250C1301.92 182.47 1274.61 107.81 1436.32 0C1462.11 -17.19 1468.16 0 1500 0C1521.36 0 1538.74 -19.1 1542.72 0C1577.81 168.4 1594.89 201.31 1578.13 375C1573.53 422.69 1546.88 422.45 1500 442.77C1320.31 520.66 1316.83 551.74 1125 571.43C941.83 590.23 928.9 573.03 750 519.74C599.16 474.81 465.52 440.79 465.52 375" stroke="rgba(0, 0, 0, 0.08)" stroke-width="2"/>
    <path d="M2250 91.22C2238.79 91.22 2207.28 32.03 2207.28 0C2207.28 -13.58 2243.19 -14.55 2250 0C2264.55 31.06 2260.15 91.22 2250 91.22" stroke="rgba(0, 0, 0, 0.08)" stroke-width="2"/>
    <path d="M1869.57 750C1872.87 747.36 1871.19 743.53 1875 743.53C1888.33 743.53 1890.87 743.01 1903.85 750C2078.37 844.07 2130.73 816.43 2250 945.65C2303.8 1003.93 2250 1035.32 2250 1125C2250 1151.44 2272.85 1170.51 2250 1177.88C2085.35 1231 2048.49 1175.8 1875 1245.97C1673.49 1327.48 1694.94 1462.48 1500 1481.25C1319.94 1498.59 1319.59 1374.94 1125 1318.18C944.59 1265.56 903.57 1332.15 750 1262.5C690.6 1235.56 699.07 1191.69 699.07 1125C699.07 1078.1 704.91 1053.57 750 1035.33C917.88 967.42 937.93 950.76 1125 952.7C1312.93 954.65 1332.52 1088.7 1500 1043.1C1704.8 987.35 1685.37 897.15 1869.57 750" stroke="rgba(0, 0, 0, 0.08)" stroke-width="2"/>
    <path d="M241.07 1500C241.07 1482.55 306.74 1433.82 375 1433.82C456.42 1433.82 540.44 1482.84 540.44 1500C540.44 1515.93 457.72 1500 375 1500C308.03 1500 241.07 1515.64 241.07 1500" stroke="rgba(0, 0, 0, 0.08)" stroke-width="2"/>
  </g>
  <defs>
    <mask id="SvgjsMask1017">
      <rect width="2000" height="1500" fill="white"/>
    </mask>
  </defs>
</svg>
