<?xml version="1.0"?>
<svg xmlns="http://www.w3.org/2000/svg" xmlns:xlink="http://www.w3.org/1999/xlink" xmlns:svgjs="http://svgjs.com/svgjs" version="1.1" width="1440" height="1000" preserveAspectRatio="none" viewBox="0 0 1440 1000">
  <g mask='url("#SvgjsMask1048")' fill="none">
  <!--
    <rect width="1440" height="1000" x="0" y="0" fill="rgba(0, 0, 0, 0.08)"/>
    -->
    <path d="M53 276L52 -25" stroke-width="8" stroke="url(#SvgjsLinearGradient1049)" stroke-linecap="round" class="Down"/>
    <path d="M1282 126L1281 -614" stroke-width="6" stroke="url(#SvgjsLinearGradient1049)" stroke-linecap="round" class="Down"/>
    <path d="M411 407L410 893" stroke-width="10" stroke="url(#SvgjsLinearGradient1050)" stroke-linecap="round" class="Up"/>
    <path d="M502 246L501 -112" stroke-width="6" stroke="url(#SvgjsLinearGradient1049)" stroke-linecap="round" class="Down"/>
    <path d="M1092 731L1091 186" stroke-width="6" stroke="url(#SvgjsLinearGradient1049)" stroke-linecap="round" class="Down"/>
    <path d="M959 172L958 -242" stroke-width="8" stroke="url(#SvgjsLinearGradient1050)" stroke-linecap="round" class="Up"/>
    <path d="M639 512L638 72" stroke-width="10" stroke="url(#SvgjsLinearGradient1050)" stroke-linecap="round" class="Up"/>
    <path d="M1433 142L1432 816" stroke-width="8" stroke="url(#SvgjsLinearGradient1049)" stroke-linecap="round" class="Down"/>
    <path d="M948 909L947 1329" stroke-width="6" stroke="url(#SvgjsLinearGradient1050)" stroke-linecap="round" class="Up"/>
    <path d="M113 883L112 212" stroke-width="10" stroke="url(#SvgjsLinearGradient1049)" stroke-linecap="round" class="Down"/>
    <path d="M98 436L97 850" stroke-width="6" stroke="url(#SvgjsLinearGradient1049)" stroke-linecap="round" class="Down"/>
    <path d="M35 166L34 568" stroke-width="6" stroke="url(#SvgjsLinearGradient1049)" stroke-linecap="round" class="Down"/>
    <path d="M717 524L716 953" stroke-width="10" stroke="url(#SvgjsLinearGradient1049)" stroke-linecap="round" class="Down"/>
    <path d="M558 703L557 233" stroke-width="6" stroke="url(#SvgjsLinearGradient1050)" stroke-linecap="round" class="Up"/>
    <path d="M297 930L296 249" stroke-width="10" stroke="url(#SvgjsLinearGradient1049)" stroke-linecap="round" class="Down"/>
    <path d="M1190 112L1189 -441" stroke-width="10" stroke="url(#SvgjsLinearGradient1049)" stroke-linecap="round" class="Down"/>
    <path d="M507 908L506 343" stroke-width="6" stroke="url(#SvgjsLinearGradient1050)" stroke-linecap="round" class="Up"/>
    <path d="M648 37L647 715" stroke-width="6" stroke="url(#SvgjsLinearGradient1049)" stroke-linecap="round" class="Down"/>
    <path d="M1238 303L1237 901" stroke-width="10" stroke="url(#SvgjsLinearGradient1050)" stroke-linecap="round" class="Up"/>
    <path d="M101 195L100 680" stroke-width="6" stroke="url(#SvgjsLinearGradient1050)" stroke-linecap="round" class="Up"/>
    <path d="M1389 769L1388 404" stroke-width="6" stroke="url(#SvgjsLinearGradient1050)" stroke-linecap="round" class="Up"/>
    <path d="M1416 584L1415 1310" stroke-width="10" stroke="url(#SvgjsLinearGradient1050)" stroke-linecap="round" class="Up"/>
    <path d="M447 598L446 867" stroke-width="8" stroke="url(#SvgjsLinearGradient1049)" stroke-linecap="round" class="Down"/>
    <path d="M723 386L722 914" stroke-width="8" stroke="url(#SvgjsLinearGradient1050)" stroke-linecap="round" class="Up"/>
    <path d="M1409 580L1408 1279" stroke-width="10" stroke="url(#SvgjsLinearGradient1049)" stroke-linecap="round" class="Down"/>
    <path d="M1375 357L1374 -45" stroke-width="8" stroke="url(#SvgjsLinearGradient1049)" stroke-linecap="round" class="Down"/>
    <path d="M1314 958L1313 517" stroke-width="10" stroke="url(#SvgjsLinearGradient1050)" stroke-linecap="round" class="Up"/>
    <path d="M789 353L788 650" stroke-width="6" stroke="url(#SvgjsLinearGradient1049)" stroke-linecap="round" class="Down"/>
    <path d="M510 237L509 -469" stroke-width="6" stroke="url(#SvgjsLinearGradient1049)" stroke-linecap="round" class="Down"/>
    <path d="M1136 929L1135 1566" stroke-width="6" stroke="url(#SvgjsLinearGradient1049)" stroke-linecap="round" class="Down"/>
    <path d="M101 226L100 880" stroke-width="6" stroke="url(#SvgjsLinearGradient1049)" stroke-linecap="round" class="Down"/>
    <path d="M984 572L983 890" stroke-width="8" stroke="url(#SvgjsLinearGradient1049)" stroke-linecap="round" class="Down"/>
    <path d="M745 811L744 176" stroke-width="8" stroke="url(#SvgjsLinearGradient1050)" stroke-linecap="round" class="Up"/>
    <path d="M1415 587L1414 844" stroke-width="6" stroke="url(#SvgjsLinearGradient1050)" stroke-linecap="round" class="Up"/>
    <path d="M736 955L735 295" stroke-width="6" stroke="url(#SvgjsLinearGradient1050)" stroke-linecap="round" class="Up"/>
    <path d="M1428 11L1427 422" stroke-width="6" stroke="url(#SvgjsLinearGradient1049)" stroke-linecap="round" class="Down"/>
  </g>
  <defs>
    <mask id="SvgjsMask1048">
      <rect width="1440" height="1000" fill="white"/>
    </mask>
    <linearGradient x1="0%" y1="0%" x2="0%" y2="100%" id="SvgjsLinearGradient1049">
      <stop stop-color="rgba(0, 0, 0, 0)" offset="0"/>
      <stop stop-color="rgba(0, 0, 0, 0.08)" offset="1"/>
    </linearGradient>
    <linearGradient x1="0%" y1="100%" x2="0%" y2="0%" id="SvgjsLinearGradient1050">
      <stop stop-color="rgba(0, 0, 0, 0)" offset="0"/>
      <stop stop-color="rgba(0, 0, 0, 0.08)" offset="1"/>
    </linearGradient>
  </defs>
</svg>
